<?xml version="1.0" standalone="no"?>
<!DOCTYPE svg PUBLIC "-//W3C//DTD SVG 20010904//EN"
 "http://www.w3.org/TR/2001/REC-SVG-20010904/DTD/svg10.dtd">
<svg version="1.0" xmlns="http://www.w3.org/2000/svg"
 width="512.000000pt" height="512.000000pt" viewBox="0 0 512.000000 512.000000"
 preserveAspectRatio="xMidYMid meet">
<metadata>
Created by potrace 1.14, written by Peter Selinger 2001-2017
</metadata>
<g transform="translate(0.000000,512.000000) scale(0.100000,-0.100000)"
fill="#000000" stroke="none">
<path d="M0 2560 l0 -2560 2560 0 2560 0 0 2560 0 2560 -2560 0 -2560 0 0
-2560z m3059 2284 c61 -54 63 -69 42 -314 -10 -118 -17 -217 -15 -218 1 -2
228 -6 503 -9 l500 -6 235 -242 235 -242 -72 -6 c-40 -3 -382 -29 -762 -58
-379 -28 -693 -54 -696 -57 -4 -4 -19 -142 -33 -307 -15 -165 -29 -324 -32
-353 l-6 -53 158 104 c389 254 684 403 914 462 458 118 708 -81 785 -624 22
-151 16 -517 -10 -671 -24 -145 -70 -324 -109 -435 -125 -347 -395 -744 -561
-826 -111 -54 -283 -51 -399 8 -80 41 -284 180 -371 254 -122 103 -328 293
-332 305 -3 8 27 14 89 19 120 9 159 20 209 63 73 63 114 169 159 417 12 66
30 165 41 219 33 170 25 194 -58 181 -183 -27 -448 -161 -547 -276 -45 -53
-52 -80 -68 -249 l-13 -135 -291 -3 -291 -2 -6 47 c-4 27 -11 100 -17 163 -6
63 -16 127 -22 143 -13 35 -98 112 -171 155 -163 98 -423 184 -461 153 -18
-15 -20 -58 -6 -128 5 -26 25 -133 45 -238 54 -284 91 -384 165 -447 49 -42
88 -54 208 -63 50 -4 92 -11 92 -15 0 -10 -313 -291 -425 -381 -222 -179 -363
-238 -534 -226 -121 8 -183 40 -286 148 -208 220 -400 586 -485 929 -55 223
-65 311 -65 600 0 241 2 275 24 380 45 217 103 343 200 440 149 149 389 169
695 59 190 -69 499 -236 820 -444 55 -36 101 -63 103 -62 4 4 -58 681 -63 686
-2 2 -341 29 -754 61 -412 31 -751 58 -754 61 -2 2 102 113 232 247 l237 242
492 7 492 6 -4 26 c-10 64 -27 404 -21 434 6 33 40 73 81 95 14 8 165 11 482
12 l463 0 39 -36z m-2167 -221 c10 -9 18 -21 18 -27 0 -13 -342 -356 -354
-356 -16 0 -146 134 -146 150 0 20 19 40 40 40 9 0 34 -18 55 -40 21 -22 44
-40 49 -40 6 0 76 65 156 145 81 80 150 145 155 145 5 0 17 -7 27 -17z m3799
-14 c10 -19 -5 -37 -157 -190 -107 -107 -176 -169 -188 -169 -24 0 -146 117
-146 140 0 20 19 40 39 40 8 0 36 -20 61 -45 l45 -45 145 145 c150 150 177
167 201 124z m-1486 -3591 l368 -551 -22 -18 c-54 -44 -225 -88 -272 -71 -14
6 -93 70 -175 142 -82 73 -157 140 -167 148 -17 15 -18 7 -15 -204 l3 -219
-365 0 -365 0 3 219 c3 211 2 219 -15 205 -54 -45 -196 -171 -249 -221 -80
-74 -101 -82 -183 -68 -65 11 -183 59 -195 79 -4 6 -1 21 6 34 7 14 173 261
368 551 l354 526 276 0 276 0 369 -552z m-2307 -156 c14 -22 9 -28 -154 -192
-106 -108 -176 -170 -188 -170 -24 0 -146 117 -146 140 0 21 20 40 40 40 9 0
34 -18 55 -40 21 -22 44 -40 49 -40 6 0 76 66 157 146 81 80 153 144 160 142
7 -2 19 -14 27 -26z m3793 -4 c9 -18 -9 -40 -157 -189 -107 -107 -176 -169
-188 -169 -24 0 -146 117 -146 140 0 21 20 40 40 40 9 0 36 -20 60 -45 l44
-45 152 150 c156 155 170 164 195 118z"/>
</g>
</svg>
