<?xml version="1.0" encoding="UTF-8" standalone="no"?>
<svg
   version="1.0"
   width="415.35709"
   height="415.35709"
   viewBox="-0.922 -0.343 415.35709 415.35708"
   id="svg2"
   xml:space="preserve"
   sodipodi:docname="Bergwacht-bayern.svg"
   inkscape:version="1.1 (c4e8f9ed74, 2021-05-24)"
   xmlns:inkscape="http://www.inkscape.org/namespaces/inkscape"
   xmlns:sodipodi="http://sodipodi.sourceforge.net/DTD/sodipodi-0.dtd"
   xmlns="http://www.w3.org/2000/svg"
   xmlns:svg="http://www.w3.org/2000/svg"><sodipodi:namedview
   id="namedview890"
   pagecolor="#ffffff"
   bordercolor="#666666"
   borderopacity="1.0"
   inkscape:pageshadow="2"
   inkscape:pageopacity="0.0"
   inkscape:pagecheckerboard="0"
   showgrid="false"
   fit-margin-top="0"
   fit-margin-left="0"
   fit-margin-right="0"
   fit-margin-bottom="0"
   inkscape:zoom="1.5216606"
   inkscape:cx="215.55397"
   inkscape:cy="256.62752"
   inkscape:window-width="1920"
   inkscape:window-height="1058"
   inkscape:window-x="0"
   inkscape:window-y="0"
   inkscape:window-maximized="1"
   inkscape:current-layer="svg2" />
	<defs
   id="defs4">
	</defs>
	<rect
   width="415.35709"
   height="415.35709"
   x="-0.92199999"
   y="-0.34299999"
   style="fill:#0088ce;stroke-width:1"
   id="rect8" /><g
   id="g6"
   transform="translate(-16.923991,3.3924067)">
		 
		
		<path
   d="m 64.38,188.648 c 10.34,-3.676 16.774,-4.825 27.233,-8.382 7.695,-2.643 21.023,-3.107 18.268,-10.918 -2.755,-7.811 -7.238,-10.918 -13.557,-16.313 -8.503,-7.358 -14.102,-12.027 -18.615,-22.293 -8.402,-19.101 -17.912,-33.398 -19.195,-52.28 -0.743,-10.887 30.111,0.846 43.44,9.576 14.937,9.881 22.153,15.561 38.237,23.603 7.932,4.021 14.968,13.23 18.18,8.257 2.593,-4.006 -7.704,-23.739 -9.541,-29.026 -4.135,-12.177 -3.995,-19.147 -2.153,-32.019 1.494,-10.453 6.974,-16.099 4.79,-26.323 -0.918,-3.907 -1.608,-12.573 3.221,-14.638 8.038,-3.447 24.13,4.616 31.368,9.097 14.708,8.965 18.615,19.531 29.417,33.091 5.059,6.434 6.205,16.086 14.129,15.051 8.279,-1.147 12.119,-5.364 19.537,-9.422 20.84,-11.408 15.574,-30.228 48.652,-36.655 8.139,-1.578 9.865,21.76 8.258,27.046 -2.637,8.618 -5.52,13.324 -6.662,22.289 -1.037,8.159 1.143,13.098 -0.352,21.254 -1.143,5.974 -4.246,9.769 -2.752,15.627 15.971,-5.337 23.107,-12.083 39.995,-12.428 9.884,-0.231 16.998,0.94 26.411,4.157 7.699,2.641 15.056,3.1 17.93,10.567 4.939,12.985 -13.21,18.27 -24.935,25.855 -13.214,8.618 -17.53,16.517 -38.702,25.196 6.521,3.298 15.494,4.676 21.924,7.205 16.436,6.319 28.257,8.789 45.496,12.7 12.986,2.87 17.701,4.535 28.961,11.199 7.813,4.595 18.51,8.451 15.859,17.231 -4.971,16.407 -18.313,8.971 -29.004,12.994 -11.025,4.138 -14.084,8.952 -25.695,10.91 -25.154,4.248 -39.639,5.394 -65.025,10.564 l 53.306,49.641 c 8.899,14.48 5.374,21.555 -4.043,24.313 -12.415,3.447 -34.954,-2.839 -41.278,-4.792 -17.93,-5.513 -41.193,-5.535 -58.43,-13.351 -0.417,3.072 0.286,9.545 0.286,9.545 0,0 6.328,24.271 -1.028,36.336 -2.869,4.713 -9.193,1.841 -14.019,-0.688 -8.499,-4.366 -11.597,-12.425 -19.292,-18.288 -9.426,8.046 -13.913,17.022 -16.787,28.858 -2.756,11.487 -3.331,22.862 -14.476,26.886 -18.176,6.562 -18.154,-22.521 -20.566,-39.41 -1.266,-8.846 -5.511,-13.792 -4.825,-22.752 -8.275,4.825 -14.915,3.309 -23.897,6.436 -14.181,2.942 -23.133,11.215 -37.824,13.917 -32.423,5.973 -11.883,-22.212 -9.127,-27.03 14.361,-25.168 21.92,-53.438 32.335,-65.654 -8.846,-8.844 -15.214,-5.01 -27.281,-7.884 -12.639,-2.988 -18.958,-7.467 -31.021,-12.178 -10.112,-3.906 -17.117,-2.872 -27.69,-5.17 -12.292,-2.641 -26.895,-7.124 -26.082,-19.885 0.509,-7.992 27.663,-15.069 46.621,-21.622"
   style="fill:#231f20"
   id="path20" />
		<path
   d="m 64.38,188.648 -0.576,-1.624 c 10.468,-3.722 16.919,-4.869 27.25,-8.394 h -0.009 0.004 c 3.718,-1.27 8.376,-2.01 11.984,-3.16 1.802,-0.563 3.313,-1.232 4.232,-1.951 0.927,-0.751 1.235,-1.32 1.257,-2.206 0,-0.374 -0.07,-0.828 -0.268,-1.391 -1.314,-3.698 -2.958,-6.166 -5.08,-8.464 -2.127,-2.292 -4.781,-4.388 -7.976,-7.115 l -0.004,-0.004 C 86.735,147.035 80.776,142.045 76.131,131.439 67.83,112.503 58.144,98.021 56.786,78.578 l -0.013,-0.495 c -0.048,-1.901 0.94,-3.669 2.457,-4.546 1.494,-0.905 3.292,-1.184 5.309,-1.193 5.199,0.018 12.248,2.021 19.345,4.766 7.084,2.76 14.12,6.277 19.02,9.481 l 0.004,0.004 c 14.999,9.927 22.091,15.517 38.057,23.5 l 0.009,0.004 c 3.379,1.719 6.46,4.208 9.119,6.21 1.327,1 2.553,1.872 3.582,2.458 1.037,0.598 1.872,0.855 2.285,0.839 0.409,-0.044 0.497,-0.013 0.962,-0.646 0.018,0 0.149,-0.325 0.141,-0.932 0.009,-1.219 -0.453,-3.331 -1.239,-5.719 -1.173,-3.602 -3.006,-7.913 -4.702,-11.751 -1.701,-3.856 -3.243,-7.186 -3.916,-9.121 l -0.004,-0.009 v -0.004 c -2.479,-7.264 -3.485,-12.876 -3.48,-18.883 0,-4.21 0.488,-8.594 1.248,-13.931 0.655,-4.59 2.039,-8.266 3.195,-11.615 1.165,-3.357 2.087,-6.363 2.087,-9.806 0,-1.341 -0.141,-2.753 -0.47,-4.3 l 1.688,-0.36 -1.683,0.396 c -0.374,-1.602 -0.699,-3.838 -0.699,-6.214 0,-1.973 0.22,-4.034 0.918,-5.911 0.681,-1.856 1.947,-3.621 3.999,-4.5 1.639,-0.701 3.45,-0.971 5.344,-0.971 4.68,0.009 9.989,1.644 14.963,3.7 4.97,2.065 9.571,4.579 12.656,6.489 l -0.009,-0.005 c 7.559,4.599 12.415,9.692 16.642,15.251 4.245,5.561 7.893,11.555 13.224,18.237 l 0.008,0.009 c 2.598,3.327 4.136,7.201 5.832,10.048 0.844,1.421 1.701,2.57 2.615,3.298 0.922,0.729 1.836,1.112 3.186,1.125 l 0.914,-0.062 h -0.014 c 3.89,-0.545 6.637,-1.76 9.457,-3.401 2.813,-1.635 5.67,-3.731 9.492,-5.829 9.98,-5.467 13.641,-12.604 19.2,-19.74 5.528,-7.137 13.096,-13.865 29.948,-17.088 l 1.107,-0.108 c 2.149,-0.004 3.89,1.271 5.072,2.876 1.811,2.443 2.891,5.877 3.629,9.554 0.726,3.667 1.051,7.561 1.051,10.795 -0.009,2.546 -0.176,4.625 -0.619,6.119 -1.35,4.401 -2.747,7.776 -3.916,11.09 -1.174,3.32 -2.131,6.578 -2.686,10.916 -0.206,1.61 -0.276,3.083 -0.276,4.491 -0.005,3.533 0.475,6.708 0.483,10.448 0,1.962 -0.141,4.069 -0.571,6.41 l -0.005,0.009 v 0.009 c -0.496,2.602 -1.331,4.766 -1.981,6.708 -0.663,1.953 -1.138,3.669 -1.138,5.482 0,0.846 0.096,1.718 0.347,2.683 l -1.675,0.426 -0.549,-1.637 c 7.849,-2.619 13.553,-5.603 19.551,-8.046 5.99,-2.443 12.292,-4.298 20.958,-4.47 h -0.013 0.008 c 0.809,-0.018 1.6,-0.03 2.378,-0.03 8.868,-0.005 15.86,1.272 24.636,4.278 3.718,1.283 7.497,2.048 10.902,3.524 3.393,1.45 6.482,3.838 8.073,8.06 l -0.005,-0.013 0.005,0.018 c 0.642,1.666 0.949,3.28 0.949,4.821 0.005,2.964 -1.169,5.575 -2.958,7.761 -2.685,3.285 -6.697,5.823 -10.977,8.24 -4.281,2.404 -8.852,4.658 -12.617,7.097 l -0.009,0.004 0.018,-0.009 c -6.478,4.217 -10.798,8.288 -16.265,12.496 -5.457,4.203 -12.019,8.459 -22.732,12.852 l -0.654,-1.598 0.777,-1.542 c 6.148,3.14 15.064,4.526 21.775,7.141 l -0.005,-0.004 h -0.005 c 16.309,6.269 27.994,8.712 45.26,12.623 h -0.009 c 13.003,2.856 18.158,4.689 29.47,11.397 h -0.004 c 3.393,2.001 7.492,3.915 10.876,6.304 1.692,1.202 3.217,2.529 4.359,4.135 1.147,1.595 1.89,3.511 1.881,5.645 0,1.013 -0.158,2.061 -0.483,3.135 -1.305,4.333 -3.256,7.313 -5.709,9.244 -3.695,2.903 -8.104,3.268 -12.322,3.424 -4.244,0.141 -8.433,0.081 -12.014,1.445 -5.354,2.006 -8.741,4.162 -12.41,6.168 -3.656,2.008 -7.599,3.821 -13.61,4.825 -25.229,4.261 -39.669,5.405 -64.969,10.556 l -0.343,-1.692 1.174,-1.263 53.48,49.796 0.123,0.202 c 3.648,5.95 5.375,10.806 5.389,14.933 0.018,3.081 -1.055,5.754 -2.94,7.739 -1.881,1.993 -4.46,3.318 -7.479,4.203 l -0.009,0.005 h -0.013 c -2.809,0.777 -5.973,1.079 -9.309,1.079 -12.639,-0.013 -27.844,-4.315 -32.941,-5.88 -17.551,-5.44 -40.877,-5.427 -58.636,-13.427 l 0.716,-1.576 1.71,0.233 c -0.075,0.576 -0.114,1.404 -0.114,2.301 0,1.507 0.102,3.229 0.202,4.557 0.101,1.334 0.202,2.266 0.202,2.266 l -1.714,0.189 1.67,-0.437 c 0.018,0.077 2.579,9.872 2.584,20.34 -0.009,6.084 -0.835,12.428 -3.806,17.334 -1.393,2.367 -3.841,3.397 -6.121,3.347 -3.568,-0.035 -7.168,-1.856 -10.174,-3.406 l 0.009,0.004 h 0.005 c -4.566,-2.345 -7.651,-5.673 -10.477,-9 -2.835,-3.338 -5.449,-6.687 -9.08,-9.45 l 1.051,-1.371 1.116,1.313 c -9.118,7.816 -13.377,16.313 -16.225,27.954 v 0.004 l 0.005,-0.009 c -1.363,5.643 -2.189,11.413 -4.166,16.471 -1.951,5.043 -5.318,9.468 -11.404,11.637 -1.942,0.701 -3.753,1.048 -5.449,1.048 -3.907,0.027 -7.044,-1.953 -9.158,-4.859 -3.212,-4.364 -4.75,-10.745 -5.845,-17.491 -1.068,-6.746 -1.608,-13.869 -2.413,-19.49 -0.554,-3.885 -1.718,-7.007 -2.817,-10.257 -1.09,-3.239 -2.101,-6.631 -2.101,-10.804 0,-0.67 0.026,-1.36 0.079,-2.065 l 1.723,0.129 0.87,1.49 c -4.377,2.566 -8.402,3.447 -12.278,4.069 -3.889,0.624 -7.642,1.015 -11.922,2.509 l -0.11,0.038 -0.105,0.021 c -6.842,1.417 -12.472,4.136 -18.33,6.917 -5.854,2.771 -11.936,5.607 -19.529,7.007 -3.16,0.58 -5.862,0.855 -8.187,0.855 -4.061,-0.005 -7.036,-0.833 -9.088,-2.534 -2.061,-1.711 -2.856,-4.208 -2.839,-6.651 0.026,-4.208 2,-8.745 4.083,-12.709 2.087,-3.925 4.381,-7.304 5.093,-8.55 7.102,-12.452 12.564,-25.745 17.552,-37.499 5.01,-11.76 9.488,-21.964 14.963,-28.413 l 1.314,1.116 -1.222,1.224 c -4.219,-4.168 -7.422,-5.179 -11.417,-5.693 -3.986,-0.49 -8.767,-0.244 -15.042,-1.731 h 0.004 c -6.442,-1.527 -11.32,-3.443 -16.031,-5.55 -4.715,-2.105 -9.268,-4.377 -15.218,-6.704 l 0.004,0.004 c -4.882,-1.885 -8.969,-2.575 -13.258,-3.087 -4.28,-0.507 -8.763,-0.833 -14.181,-2.006 l 0.018,0.004 -0.013,-0.004 c -6.038,-1.305 -12.7,-3.034 -18.04,-6.098 -2.663,-1.536 -5.014,-3.421 -6.719,-5.82 -1.705,-2.389 -2.72,-5.304 -2.716,-8.648 l 0.035,-1.121 c 0.101,-1.49 0.8,-2.813 1.784,-3.964 1.736,-2.01 4.403,-3.718 7.721,-5.401 9.923,-4.985 25.893,-9.49 38.276,-13.772 h -0.004 l -0.009,0.004 0.575,1.625 0.567,1.633 c -9.536,3.289 -21.045,6.697 -30.168,10.248 -4.553,1.767 -8.508,3.586 -11.246,5.359 -1.367,0.885 -2.421,1.764 -3.085,2.546 -0.677,0.791 -0.932,1.439 -0.967,1.945 l -0.026,0.898 c 0.004,2.661 0.756,4.779 2.079,6.651 1.973,2.795 5.37,4.999 9.453,6.692 4.074,1.701 8.776,2.894 13.214,3.848 l -0.004,-0.004 0.009,0.004 c 5.155,1.121 9.461,1.431 13.856,1.951 4.39,0.523 8.864,1.274 14.093,3.296 l 0.004,0.004 c 6.113,2.384 10.753,4.707 15.372,6.763 4.623,2.061 9.229,3.874 15.42,5.342 l -0.009,-0.005 0.013,0.005 c 5.792,1.382 10.222,1.146 14.651,1.67 4.417,0.499 8.82,1.993 13.443,6.673 l 1.129,1.129 -1.033,1.21 c -4.935,5.764 -9.444,15.803 -14.41,27.525 -4.983,11.727 -10.485,25.152 -17.736,37.863 -0.87,1.507 -3.045,4.689 -5.036,8.455 -2,3.731 -3.709,8.02 -3.683,11.09 0.018,1.813 0.483,3.045 1.604,3.999 1.129,0.964 3.252,1.733 6.869,1.733 2.052,0 4.553,-0.248 7.563,-0.802 7.088,-1.306 12.828,-3.955 18.672,-6.726 5.832,-2.769 11.769,-5.658 19.107,-7.178 l 0.352,1.688 -0.567,-1.628 c 4.702,-1.639 8.763,-2.052 12.507,-2.657 3.762,-0.61 7.198,-1.375 11.092,-3.641 l 2.843,-1.659 -0.255,3.285 c -0.048,0.62 -0.07,1.22 -0.07,1.8 0,3.61 0.857,6.53 1.92,9.701 1.063,3.168 2.347,6.565 2.962,10.868 1.099,7.724 1.696,17.767 3.639,25.728 0.958,3.978 2.268,7.403 3.973,9.684 1.736,2.28 3.621,3.438 6.385,3.47 1.217,0 2.633,-0.253 4.275,-0.846 5.055,-1.859 7.551,-5.136 9.365,-9.653 1.779,-4.509 2.623,-10.169 4.017,-16.011 l 0.005,-0.004 c 2.896,-12.028 7.619,-21.491 17.34,-29.767 l 1.055,-0.905 1.107,0.846 c 4.07,3.1 6.855,6.715 9.615,9.958 2.773,3.263 5.494,6.148 9.427,8.163 l 0.005,0.007 0.008,0.004 c 2.875,1.534 6.275,3.05 8.57,3.015 1.48,-0.055 2.324,-0.387 3.168,-1.692 2.439,-3.962 3.322,-9.784 3.309,-15.539 0,-4.955 -0.619,-9.846 -1.243,-13.487 -0.308,-1.817 -0.62,-3.32 -0.853,-4.371 -0.229,-1.043 -0.383,-1.61 -0.378,-1.615 l -0.035,-0.121 -0.018,-0.125 c 0,-0.033 -0.422,-3.889 -0.422,-7.196 0,-0.991 0.035,-1.932 0.149,-2.765 l 0.313,-2.298 2.109,0.958 c 16.721,7.626 39.924,7.686 58.223,13.271 4.918,1.529 20.035,5.746 31.926,5.732 3.121,0 6.012,-0.292 8.385,-0.954 l 0.462,1.664 -0.487,-1.659 c 2.637,-0.765 4.645,-1.872 5.937,-3.254 1.292,-1.391 1.991,-3.035 2.004,-5.373 0.013,-3.116 -1.406,-7.484 -4.878,-13.126 l 1.468,-0.901 -1.178,1.259 -55.758,-51.919 3.282,-0.672 c 25.48,-5.188 40.004,-6.339 65.088,-10.578 5.599,-0.949 8.991,-2.52 12.524,-4.447 3.521,-1.925 7.181,-4.248 12.854,-6.376 5.906,-2.182 12.076,-1.255 17.028,-1.944 2.483,-0.328 4.593,-0.984 6.386,-2.397 1.779,-1.417 3.361,-3.663 4.539,-7.532 0.237,-0.789 0.338,-1.49 0.338,-2.138 -0.004,-1.352 -0.43,-2.49 -1.238,-3.641 -1.213,-1.718 -3.397,-3.353 -5.977,-4.887 -2.571,-1.541 -5.512,-2.997 -8.205,-4.582 l -0.014,-0.009 0.01,0.009 c -11.215,-6.616 -15.486,-8.114 -28.455,-11.001 h -0.009 C 366.81,186.303 354.844,183.8 338.286,177.432 l -0.005,-0.004 h -0.005 c -6.152,-2.443 -15.178,-3.806 -22.078,-7.271 l -3.365,-1.705 3.493,-1.433 c 10.454,-4.293 16.642,-8.326 21.938,-12.393 5.291,-4.063 9.738,-8.253 16.479,-12.654 h 0.009 c 5.339,-3.452 11.782,-6.359 16.765,-9.58 2.492,-1.606 4.602,-3.281 6.025,-5.036 1.424,-1.769 2.176,-3.533 2.18,-5.583 0,-1.077 -0.211,-2.259 -0.721,-3.592 l 0.004,0.004 c -1.278,-3.247 -3.305,-4.823 -6.23,-6.132 -2.918,-1.279 -6.667,-2.065 -10.645,-3.421 -8.547,-2.916 -14.972,-4.084 -23.515,-4.089 -0.747,0 -1.517,0.009 -2.298,0.026 h -0.005 c -8.218,0.176 -13.931,1.863 -19.728,4.217 -5.783,2.349 -11.637,5.405 -19.753,8.123 l -1.767,0.589 -0.457,-1.8 c -0.316,-1.237 -0.457,-2.417 -0.453,-3.537 0,-2.435 0.638,-4.555 1.318,-6.583 0.69,-2.039 1.438,-4.01 1.863,-6.26 v 0.013 c 0.387,-2.114 0.515,-3.986 0.515,-5.788 0.005,-3.41 -0.475,-6.596 -0.483,-10.448 0,-1.529 0.079,-3.16 0.303,-4.929 0.59,-4.621 1.645,-8.198 2.857,-11.628 1.217,-3.437 2.574,-6.722 3.871,-10.947 0.255,-0.815 0.479,-2.777 0.466,-5.113 0.009,-4.01 -0.554,-9.284 -1.775,-13.384 -0.598,-2.043 -1.38,-3.788 -2.215,-4.891 -0.861,-1.121 -1.569,-1.494 -2.308,-1.499 l -0.452,0.046 c -16.22,3.199 -22.562,9.095 -27.879,15.827 -5.282,6.726 -9.409,14.7 -20.268,20.641 -3.595,1.966 -6.372,4.008 -9.404,5.781 -3.028,1.773 -6.333,3.237 -10.728,3.839 l -0.004,0.004 h -0.009 c -0.466,0.059 -0.923,0.09 -1.362,0.09 -2.105,0.013 -3.941,-0.732 -5.357,-1.886 -2.122,-1.735 -3.445,-4.194 -4.768,-6.699 -1.305,-2.512 -2.575,-5.113 -4.223,-7.205 v 0.005 l 0.004,0.004 C 208.645,54.28 204.944,48.21 200.853,42.855 196.757,37.496 192.305,32.824 185.156,28.459 l -0.009,-0.004 c -2.94,-1.817 -7.422,-4.265 -12.164,-6.236 -4.737,-1.982 -9.778,-3.452 -13.641,-3.439 -1.56,0 -2.909,0.235 -3.981,0.692 -0.958,0.42 -1.63,1.224 -2.131,2.54 -0.488,1.29 -0.703,2.995 -0.699,4.698 0,2.045 0.299,4.089 0.611,5.42 l 0.009,0.038 c 0.378,1.778 0.545,3.441 0.545,5.021 0,4.082 -1.103,7.534 -2.276,10.936 -1.178,3.41 -2.443,6.81 -3.037,10.976 -0.756,5.273 -1.217,9.499 -1.213,13.44 0.004,5.616 0.901,10.725 3.292,17.776 V 90.31 l -0.004,-0.004 c 0.738,2.143 3.252,7.429 5.555,12.865 1.151,2.727 2.259,5.521 3.089,8.072 0.822,2.566 1.402,4.843 1.411,6.788 -0.009,0.971 -0.132,1.912 -0.694,2.808 -0.839,1.389 -2.377,2.268 -3.863,2.222 -1.437,-0.014 -2.707,-0.571 -3.99,-1.29 -3.784,-2.184 -8.121,-6.363 -12.555,-8.591 l 0.004,0.004 h 0.004 C 123.216,105.085 115.873,99.315 101.002,89.478 l 0.004,0.004 C 96.409,86.467 89.501,83.003 82.628,80.335 75.777,77.652 68.86,75.78 64.536,75.797 c -1.666,-0.009 -2.892,0.292 -3.494,0.679 -0.584,0.416 -0.769,0.657 -0.817,1.608 l 0.009,0.259 c 1.222,18.325 10.551,32.432 19.055,51.706 4.381,9.923 9.615,14.273 18.163,21.676 l -0.009,-0.004 c 3.129,2.674 5.875,4.823 8.257,7.389 2.386,2.56 4.364,5.548 5.805,9.662 0.308,0.868 0.47,1.714 0.47,2.542 0.022,2.083 -1.121,3.83 -2.597,4.938 -2.224,1.691 -5.243,2.564 -8.376,3.37 -3.125,0.782 -6.381,1.431 -8.833,2.276 l 0.009,-0.004 -0.009,0.004 c -10.578,3.6 -17.002,4.744 -27.211,8.378 l -0.009,0.004 h -0.004 l -0.565,-1.632"
   style="fill:#231f20"
   id="path22" />
		<path
   d="m 228.841,92.714 c 4.54,-8.433 8.06,-13.667 16.247,-18.072 l 0.452,-0.207 0.821,-0.32 c 0.664,-0.246 1.481,-0.554 2.436,-0.94 1.934,-0.787 4.385,-1.916 7.07,-3.621 5.405,-3.421 11.721,-9.128 16.703,-18.932 1.582,-3.12 16.506,-15.908 22.844,-15.44 5.075,0.374 7.062,4.856 6.78,11.705 -0.269,6.699 -2.76,14.728 -5.572,20.221 -2.171,4.28 -2.263,8.174 -2.132,11.953 0.066,1.846 0.189,3.713 0.158,5.66 -0.03,1.905 -0.211,3.854 -0.742,5.928 -1.239,4.887 -1.688,8.328 -2.628,11.547 -0.901,3.059 -2.255,5.913 -5.366,9.782 -1.094,1.36 -2.685,2.885 -4.126,4.46 -1.45,1.593 -2.931,3.415 -3.551,5.261 -1.429,4.513 -16.392,10.808 -21.727,10.296 -6.1,-0.582 -6.411,-3.563 -3.551,-9.217 1.419,-2.813 3.551,-5.981 5.845,-9.242 2.299,-3.28 4.711,-6.587 6.627,-9.617 10.305,-16.267 13.627,-26.396 16.158,-35.704 0.286,-1.04 2.554,-10.268 2.554,-10.268 0,0 -3.727,3.5 -4.579,4.355 -1.754,1.76 -4.096,6.886 -7.158,10.507 -6.061,7.183 -13.716,17.708 -20.461,26.321 -4.549,5.818 -7.727,9.149 -11.272,12.757 -2.659,2.709 -6.692,3.502 -7.532,4.271 -8.113,-1.458 -8.768,-15.035 -4.298,-23.444 m 27.483,50.489 c -2.131,1.147 -3.164,2.421 -3.261,3.951 v 7.857 c 13.711,-0.541 38.993,-9.684 47.325,-19.237 l 2.381,-2.74 -0.219,3.625 c -0.506,8.286 -9.734,15.007 -18.989,20.512 -4.706,2.804 -9.642,5.405 -13.892,7.835 -3.031,1.736 -5.615,3.333 -7.527,4.823 11.839,0.589 37.037,-4.856 44.728,-10.443 2.47,-1.773 5.015,-2.804 7.536,-3.479 2.457,-0.661 4.932,-0.995 7.375,-1.369 4.768,-0.729 9.048,-1.606 12.797,-5.354 3.687,-3.681 7.436,-6.412 11.18,-8.69 3.704,-2.259 7.426,-4.071 11.096,-5.943 6.965,-3.555 23.309,-11.215 18.879,-15.873 -3.783,-3.973 -7.418,-4.201 -11.932,-5.372 -4.957,-1.281 -10.357,-1.731 -16.536,-2.839 -6.122,-1.125 -22.605,1.327 -29.813,3.027 -8.503,2.062 -17.284,5.766 -24.601,10.773 -2.123,1.417 -3.287,3.151 -4.566,5.084 -0.663,1.004 -1.322,2.008 -2.131,2.966 -0.835,0.991 -1.819,1.944 -3.111,2.808 -2.035,1.377 -5.031,2.309 -8.2,3.079 -3.177,0.773 -6.737,1.426 -10.067,2.204 -3.328,0.769 -6.303,1.634 -8.452,2.795 m 67.94,36.239 c -10.357,-1.404 -16.427,-0.176 -17.477,4.392 -0.625,2.689 -0.58,16.473 -0.146,19.775 8.147,2.817 12.524,3.439 19.819,5.341 4.619,1.202 10.714,1.657 17.16,1.76 6.451,0.099 3.762,-0.154 9.523,-0.323 5.739,-0.172 13.848,-0.275 16.699,0.165 2.013,0.312 9.624,2.283 9.624,2.283 0,0 -13.254,2.088 -15.069,3.307 -13.706,5.607 -16.865,5.625 -29.891,5.346 -6.479,-0.139 -12.362,-0.356 -17.108,-0.014 -4.456,0.323 -7.506,1.139 -9.176,2.642 0.044,2.349 -0.567,4.302 -1.464,5.985 -0.47,0.885 -1.02,1.705 -1.604,2.485 -0.559,0.736 -1.151,1.439 -1.719,2.127 -2.275,2.736 -3.643,4.599 -2.43,7.523 0.264,0.639 1.111,1.305 2.944,1.789 1.767,0.466 4.131,0.67 6.847,0.675 5.463,0.004 12.015,-0.798 17.389,-1.64 7.194,-1.101 12.701,-3.01 18.216,-4.643 5.616,-1.661 11.329,-3.061 18.821,-3.061 6.285,0 11.066,-1.787 15.908,-4.05 2.461,-1.151 4.909,-2.408 7.516,-3.586 2.676,-1.206 5.52,-2.331 8.723,-3.204 2.329,-0.639 4.5,-0.964 6.574,-1.14 2.035,-0.176 12.41,0.707 17.271,-2.982 5.238,-2.138 6.398,-8.934 -7.77,-14.177 -2.378,-0.881 -5.226,-4.122 -7.875,-4.944 -2.698,-0.837 -5.524,-1.854 -8.341,-3.386 -6.244,-3.437 -12.393,-5.052 -18.805,-6.295 -6.486,-1.259 -13.135,-2.123 -20.232,-4.1 -11.454,-3.119 -23.957,-6.701 -33.927,-8.05 m -67.474,55.606 c -3.234,1.573 -4.724,0.439 -5.128,9.431 -0.186,4.16 0.224,6.656 2.219,8.651 1.656,1.654 19.428,13.521 22.843,15.286 3.388,1.753 6.095,5.966 10.354,8.064 8.499,4.188 19.155,6.583 24.675,10.292 0.857,0.576 7.854,6.201 7.854,6.201 0,0 -7.07,-0.824 -7.673,-0.828 -2.466,-0.014 -7.009,-0.969 -12.12,-2.332 -10.283,-2.74 -18.598,-4.693 -23.915,-7.646 -3.485,-1.912 -16.343,-8.987 -20.245,-9.31 -2.659,-0.22 -2.928,1.94 -3.38,3.362 -0.923,2.872 -1.257,4.671 -0.47,7.046 1.63,4.995 4.385,8.136 7.905,10.773 1.798,1.35 3.788,2.56 5.897,3.799 2.171,1.272 4.465,2.573 6.829,4.072 3.797,2.384 11.909,4.474 20.32,6.146 8.341,1.657 16.69,2.858 20.702,3.542 12.279,2.18 21.691,5.53 34.305,7.137 2.637,0.343 5.07,1.121 7.343,1.364 2.069,0.22 3.797,-0.03 5.458,-1.512 1.322,-1.228 1.604,-2.772 1.244,-4.636 -0.374,-1.916 -1.429,-4.019 -2.624,-6.003 -2.579,-4.476 -5.212,-7.563 -8.121,-10.448 -2.971,-2.944 -6.218,-5.676 -9.954,-9.409 -3.322,-3.322 -6.846,-5.757 -10.419,-7.813 -3.616,-2.079 -7.269,-3.749 -10.771,-5.517 -7.119,-3.6 -13.892,-7.704 -18.664,-16.482 -4.971,-9.149 -16.396,-24.526 -28.666,-24.621 -3.242,-0.021 -6.314,-0.125 -9.065,0.014 -2.73,0.144 -4.98,0.522 -6.733,1.377 m -9.387,62.416 c -1.517,-3.79 -3.31,-6.071 -5.823,-6.732 l -4.574,2.232 c -0.773,5.223 -0.448,8.598 -0.132,11.767 0.163,1.709 0.325,3.335 0.304,5.104 -0.018,1.804 -0.211,3.762 -0.752,6.097 -0.325,1.422 -0.91,2.749 -1.538,3.969 -0.606,1.193 -1.292,2.327 -1.886,3.401 -0.593,1.052 -3.897,6.668 -3.669,7.114 1.243,2.452 11.936,11.327 12.647,12.672 0.703,1.327 7.937,8.325 10.564,7.317 3.463,-1.327 2.786,-4.504 3.015,-8.42 0.575,-11.72 -0.919,-18.417 -3.985,-29.883 -1.42,-5.405 -2.553,-10.617 -4.171,-14.638 m -22.178,16.974 c 2.412,-4.023 2.17,-8.716 2.131,-14.247 -0.084,-11.85 -11.733,-11.3 -14.225,-10.369 -0.59,6.498 -2,12.775 -4.531,19.215 -3.318,8.429 -5.15,18.688 -10.213,26.132 -0.672,0.98 -5.41,10.125 -5.41,10.125 0,0 -0.048,-9.851 0.01,-10.648 0.201,-3.105 1.331,-8.789 2.416,-15.231 2.132,-12.654 3.661,-26.547 -0.725,-31.069 -5.194,4.28 -10.49,5.157 -15.122,10.705 -5.146,6.174 -7.414,15.75 -8.139,18.94 -0.703,3.107 2.338,8.394 2.711,11.824 0.176,1.206 4.17,14.818 5.77,26.374 1.644,11.889 3.916,22.707 4.913,24.354 3.604,5.957 11.834,0.923 13.671,-2.074 4.829,-8.2 6.741,-16.458 8.548,-24.981 0.909,-4.282 3.95,-11.687 6.314,-15.51 2.809,-4.533 2.742,-5.265 4.971,-9.721 2.66,-5.32 4.414,-9.653 6.91,-13.819 M 169.497,238.14 c -13.764,-3.267 -19.969,0.031 -23.568,4.725 -1.89,2.452 -3.138,5.388 -4.315,8.338 -0.593,1.49 -1.156,2.944 -1.762,4.289 -0.611,1.362 -1.283,2.667 -2.105,3.801 -1.767,2.426 -10.736,19.23 -13.729,25.269 -5.326,10.76 -6.521,18.936 -12.942,28.107 -1.063,1.481 -2.158,2.749 -3.239,3.92 -1.059,1.143 -2.109,2.182 -3.125,3.239 -1.995,2.079 -3.788,4.157 -5.256,7.15 -2.188,4.379 -1.92,9.271 1.635,11.512 2.237,1.477 4.342,1.278 6.842,0.387 1.31,-0.464 2.65,-1.083 4.056,-1.684 1.49,-0.635 3.045,-1.241 4.693,-1.628 6.812,-1.542 12.718,-3.43 17.266,-6.719 9.712,-7.014 26.521,-5.403 29.342,-9.163 0.655,-0.868 1.837,-10.151 3.454,-14.548 0.831,-2.264 1.556,-4.685 2.531,-7.069 0.998,-2.443 2.268,-4.904 4.197,-7.141 1.107,-1.296 2.298,-2.21 3.454,-2.949 1.099,-0.706 2.188,-1.259 3.177,-1.848 1.811,-1.076 3.032,-2.142 3.415,-4.614 1.033,-6.794 2.944,-30.41 1.613,-40.827 -3.916,7.475 -12.16,21.775 -19.907,34.024 -4.553,7.192 -5.893,6.228 -9.136,10.224 -1.595,1.962 -14.203,15.93 -14.203,15.93 0,0 6.539,-18.497 9.787,-23.634 3.23,-5.096 6.952,-9.567 8.96,-12.727 1.244,-1.997 4.153,-8.712 6.333,-15.106 1.068,-3.138 1.951,-6.165 2.351,-8.466 0.199,-1.142 0.256,-1.993 0.181,-2.792 M 30.419,207.229 c -3.063,0.807 -9.932,5.676 -5.366,9.433 2.896,2.379 4.97,3.861 8.604,3.766 3.858,-0.099 12.019,2.34 16.286,2.34 5.396,0 13.891,1.998 22.17,4.643 8.345,2.666 23.098,9.402 24.693,9.613 1.727,0.233 8.934,1.58 16.128,2.853 7.277,1.292 18.857,3.7 20.338,-3.393 3.098,-14.823 -4.961,-15.704 -7.893,-16.115 -1.644,-0.229 -3.647,-0.349 -5.84,-0.723 -2.259,-0.382 -4.755,-1.037 -7.286,-2.34 -1.969,-1.022 -5.401,-1.571 -9.747,-1.854 -4.311,-0.279 -9.277,-0.288 -14.12,-0.339 -9.272,-0.103 -19.411,-0.266 -22.236,-3.924 l -1.358,-1.749 2.206,-0.235 c 10.371,-1.088 19.09,-3.182 27.721,-4.607 8.714,-1.439 17.429,-2.22 27.655,-0.603 8.675,1.367 9.633,-4.834 8.213,-12.627 -1.371,-7.462 -11.206,-9.486 -19.819,-7.075 -8.143,2.335 -15.042,2.103 -21.182,4.963 -6.218,2.898 -36.866,11.494 -44.068,12.885 -5.607,1.029 -8.977,3.477 -15.099,5.088 m 152.547,-40.536 c 2.254,-8.552 -0.686,-14.495 -4.966,-18.775 -2.237,-2.237 -4.856,-4.021 -7.321,-5.454 -2.5,-1.453 -4.794,-2.52 -6.333,-3.316 -4.548,-2.331 -7.787,-4.636 -10.995,-6.998 -3.125,-2.303 -6.227,-4.663 -10.547,-7.163 -6.372,-3.731 -11.571,-6.403 -16.629,-9.303 -5.102,-2.929 -10.068,-6.095 -15.926,-10.799 -3.107,-2.538 -5.735,-4.261 -8.446,-5.871 -2.755,-1.64 -5.603,-3.164 -9.114,-5.293 -2.936,-1.782 -7.515,-5.638 -11.966,-8.451 -2.193,-1.382 -4.25,-2.439 -5.99,-2.874 -1.731,-0.441 -2.878,-0.213 -3.647,0.552 -2.206,2.215 -2.079,5.526 -0.721,9.707 1.371,4.208 3.744,8.648 5.01,12.32 3.094,9.299 6.029,17.146 9.356,26.446 3.089,8.6 8.609,13.28 15.016,18.06 3.248,2.421 6.662,4.827 10.006,7.732 3.384,2.933 6.719,6.385 9.743,10.861 1.516,2.241 8.583,1.703 11.342,-0.542 1.525,-1.244 4.267,-1.305 6.864,-1.184 2.716,0.129 5.928,0.531 9,0.733 3.067,0.202 5.788,0.185 7.708,-0.411 1.556,-0.481 2.443,-1.263 2.641,-2.659 -8.459,-5.346 -16.704,-9.391 -24.609,-14.521 -8.191,-5.315 -16.053,-11.809 -23.414,-22.063 l -2.949,-4.104 4.513,2.281 c 19.617,9.936 38.602,15.921 42.447,17.767 7.734,3.718 15.478,10.457 21.318,15.776 2.909,2.65 5.375,4.977 7.172,6.458 0.598,0.493 1.073,0.849 1.437,1.088 m 29.079,-49.748 c -0.22,-0.185 -0.654,-0.703 -1.279,-1.944 -0.505,-1.004 -1.379,-2.213 -2.421,-3.568 -1.055,-1.362 -2.351,-2.951 -3.774,-4.762 -2.813,-3.568 -8.275,-7.478 -11.193,-12.639 -2.399,-4.236 -4.258,-9.274 -8.165,-13.065 -6.614,-6.412 -5.353,-10.709 -7.906,-13.775 -0.91,-1.083 -1.903,-7.666 -2.808,-6.429 -0.668,0.916 -0.119,8.631 -0.176,10.065 -0.114,2.997 0.483,7.376 1.446,12.118 1.934,9.501 5.432,20.931 8.191,26.622 3.041,6.291 2.65,11.821 1.516,17.11 -0.58,2.709 -1.345,5.309 -1.929,7.862 -0.382,1.67 -0.694,3.353 -0.831,5.054 -16.963,-9.567 -14.884,-20.58 -18.18,-27.33 -1.74,-3.577 -11.333,-25.699 -11.364,-28.413 -0.026,-2.872 -1.112,-15.759 -0.646,-18.666 0.475,-2.949 1.279,-6.157 2.123,-9.747 1.714,-7.273 3.643,-16.183 3.476,-27.708 -0.07,-4.665 3.832,-5.827 10.837,-3.41 6.583,2.268 14.063,7.343 17.618,12.208 3.419,4.792 13.544,11.206 22.583,28.336 4.298,8.145 14.607,14.159 14.094,17.835 -0.55,3.909 -3.345,7.802 -4.852,12.217 -1.508,4.41 -2.602,9.185 -3.564,13.243 -0.98,4.135 -1.758,7.187 -2.588,8.51 l -0.208,0.276"
   style="fill:#ffffff"
   id="path24" />
		<polyline
   points="243.721,123.313 243.721,176.63 296.891,176.63 296.891,227.443 243.712,227.443     243.712,281.633 192.898,281.633 192.902,227.443 138.577,227.443 138.577,176.625 192.902,176.63 192.902,123.313     243.721,123.313 "
   id="polyline26"
   fill="#EC1C24"
   style="fill:#ec1c24" />
		
		
	</g>
</svg>
