<?xml version="1.0" standalone="no"?>
<!DOCTYPE svg PUBLIC "-//W3C//DTD SVG 20010904//EN"
 "http://www.w3.org/TR/2001/REC-SVG-20010904/DTD/svg10.dtd">
<svg version="1.0" xmlns="http://www.w3.org/2000/svg"
 width="700.000000pt" height="700.000000pt" viewBox="0 0 700.000000 700.000000"
 preserveAspectRatio="xMidYMid meet">
<metadata>
Created by potrace 1.14, written by Peter Selinger 2001-2017
</metadata>
<g transform="translate(0.000000,700.000000) scale(0.100000,-0.100000)"
fill="#000000" stroke="none">
<path d="M2363 6670 c-49 -11 -78 -34 -98 -76 -15 -32 -16 -55 -10 -193 l7
-156 -40 -125 c-50 -156 -66 -281 -59 -448 6 -150 24 -218 104 -401 65 -147
113 -282 113 -317 0 -14 -6 -27 -14 -30 -19 -7 -43 6 -141 76 -44 32 -120 79
-170 105 -142 75 -245 139 -455 279 -211 140 -374 225 -540 280 -231 77 -370
59 -370 -48 0 -114 57 -316 143 -502 262 -569 253 -554 500 -774 76 -67 153
-143 172 -168 38 -52 61 -113 52 -136 -10 -26 -65 -53 -153 -75 -225 -57 -940
-285 -1127 -360 -193 -77 -277 -145 -277 -224 0 -50 31 -125 71 -170 82 -94
292 -168 571 -202 179 -21 244 -40 451 -131 270 -119 323 -134 589 -163 82
-10 135 -28 181 -65 18 -14 18 -17 -13 -61 -47 -69 -127 -232 -230 -475 -120
-281 -210 -467 -298 -616 -119 -200 -149 -315 -102 -391 33 -55 71 -68 190
-67 140 2 219 24 455 128 205 91 304 123 486 155 63 11 131 27 151 35 l36 15
7 -47 c4 -25 22 -94 40 -152 24 -77 40 -161 59 -316 14 -116 35 -243 46 -283
59 -211 157 -281 317 -227 113 38 181 135 223 316 73 316 119 424 229 542 l67
71 79 -89 c124 -138 172 -180 254 -221 102 -50 174 -56 218 -19 91 77 116 314
63 600 -11 61 -20 124 -20 142 l0 33 68 -23 c98 -33 222 -61 432 -96 268 -44
329 -57 485 -100 230 -64 351 -84 510 -84 123 0 147 3 198 23 152 60 183 182
93 366 -33 67 -55 89 -463 469 -235 219 -429 401 -431 405 -3 10 181 43 572
102 574 86 554 81 722 170 170 89 201 99 344 109 69 4 145 14 168 21 113 33
201 180 172 285 -17 61 -80 116 -230 201 -262 148 -306 164 -648 243 -287 66
-379 91 -552 151 -80 28 -199 66 -265 86 -66 19 -126 38 -134 43 -11 6 10 20
70 50 106 54 175 100 319 215 144 114 205 155 350 234 193 105 265 172 280
259 14 86 -27 181 -99 226 -39 25 -303 112 -416 137 -39 9 -122 14 -235 13
-161 0 -182 -3 -265 -28 -49 -15 -137 -48 -195 -73 -169 -74 -219 -92 -226
-82 -3 5 8 58 25 118 30 103 31 119 34 312 l3 204 57 164 c53 154 57 170 57
257 0 162 -40 309 -98 354 -32 25 -87 26 -172 1 -215 -62 -313 -134 -467 -341
-97 -131 -164 -193 -301 -278 -157 -98 -216 -125 -283 -130 -53 -4 -56 -3 -87
32 -18 20 -45 63 -61 94 -16 31 -60 100 -98 152 -38 52 -103 143 -145 201 -42
58 -98 129 -125 159 -166 185 -565 368 -720 330z m289 -173 c103 -50 143 -85
335 -288 129 -136 184 -208 259 -339 32 -56 80 -118 140 -180 50 -52 97 -105
103 -118 14 -26 4 -65 -34 -142 -32 -63 -61 -153 -95 -298 -16 -67 -36 -134
-43 -148 l-13 -25 -49 72 c-27 39 -94 119 -149 178 -77 81 -113 128 -150 198
-26 51 -73 121 -103 155 -31 35 -69 92 -85 128 -16 36 -38 83 -48 105 -11 22
-25 58 -32 80 -13 39 -13 38 -16 -55 -2 -52 2 -133 8 -180 15 -110 69 -319
115 -445 21 -55 46 -122 56 -150 26 -72 24 -178 -6 -303 -14 -57 -25 -114 -25
-127 0 -13 -4 -26 -8 -29 -14 -8 -103 57 -158 116 -64 67 -86 109 -118 225
-14 50 -51 149 -82 219 -31 71 -76 179 -100 241 -43 108 -44 115 -53 270 -9
169 -12 145 48 423 26 124 41 246 41 341 0 63 4 81 22 104 20 26 25 27 84 22
48 -3 86 -16 156 -50z m2120 -174 c41 -37 52 -74 52 -163 -1 -106 -23 -197
-76 -320 -42 -95 -42 -95 -49 -255 -7 -178 -40 -350 -84 -441 -14 -28 -57 -87
-95 -130 -39 -43 -79 -95 -90 -114 -26 -50 -65 -83 -146 -123 -137 -69 -256
-85 -304 -42 -45 41 -20 100 154 359 183 272 286 489 347 731 11 44 23 89 26
100 9 35 -65 -43 -115 -120 -26 -38 -94 -131 -152 -205 -58 -74 -153 -196
-210 -270 -143 -185 -231 -279 -299 -317 -66 -39 -89 -41 -126 -11 -44 34 -65
92 -65 179 0 97 18 156 80 260 83 137 172 216 304 269 145 58 279 177 369 328
32 54 68 99 110 135 186 160 305 208 369 150z m-3725 -794 c23 -11 84 -51 135
-88 51 -37 148 -100 214 -139 67 -40 166 -107 220 -148 96 -74 207 -143 443
-275 63 -35 167 -101 230 -146 64 -45 151 -102 194 -125 208 -114 268 -163
315 -253 22 -42 26 -63 27 -132 0 -45 -3 -85 -8 -89 -9 -9 -21 0 -183 144
-162 144 -275 219 -400 267 -270 104 -412 163 -552 230 l-152 74 32 -46 c61
-84 156 -190 222 -246 103 -87 176 -136 391 -260 110 -64 201 -122 203 -131 2
-8 -9 -22 -23 -32 -23 -15 -46 -16 -203 -11 -174 7 -178 6 -227 -18 -35 -18
-67 -25 -107 -25 l-57 0 -54 68 c-67 84 -128 139 -277 252 -138 104 -209 180
-249 263 -16 34 -68 170 -115 302 -47 132 -102 281 -122 330 -25 60 -39 111
-42 152 -4 56 -2 64 22 88 30 30 49 29 123 -6z m4683 -473 c80 -14 174 -34
210 -45 74 -23 140 -72 140 -104 0 -44 -98 -117 -296 -221 -226 -119 -304
-167 -383 -240 -80 -74 -125 -95 -250 -117 -137 -25 -162 -33 -244 -80 -88
-52 -174 -84 -322 -119 -193 -47 -435 -76 -435 -52 0 9 56 44 229 142 326 183
427 277 446 415 l7 50 -47 -48 c-125 -124 -396 -248 -651 -297 -155 -30 -144
-34 -144 58 0 72 2 80 28 105 35 34 83 50 265 92 188 43 232 67 298 157 56 77
101 113 209 168 143 72 273 111 465 140 171 26 302 25 475 -4z m-1890 -646 l0
-450 445 0 445 0 0 -430 0 -430 -445 0 -445 0 0 -455 0 -455 -430 0 -430 0 0
455 0 455 -455 0 -455 0 0 430 0 430 455 0 455 0 0 450 0 450 430 0 430 0 0
-450z m1475 -516 c66 -13 212 -48 325 -78 113 -30 288 -71 390 -90 201 -39
289 -65 390 -116 36 -18 88 -41 116 -50 28 -10 71 -32 95 -50 24 -17 76 -46
115 -64 154 -72 190 -165 87 -226 -58 -34 -87 -41 -233 -50 -158 -10 -202 -22
-370 -100 -176 -81 -210 -91 -345 -101 -149 -11 -191 -19 -385 -75 -186 -53
-304 -73 -470 -81 -179 -8 -235 9 -235 74 0 31 10 51 47 98 51 65 78 120 78
159 0 19 9 28 43 42 36 16 85 19 362 25 347 7 347 6 525 78 30 13 95 31 144
41 48 10 90 21 92 23 2 2 -33 12 -78 22 -72 16 -113 17 -313 12 -312 -9 -434
6 -717 90 l-88 26 0 159 c0 216 11 239 119 258 63 11 164 3 306 -26z m-3465
-75 c62 -33 90 -90 90 -182 0 -131 -37 -156 -197 -136 -139 17 -293 6 -552
-40 -123 -23 -252 -44 -288 -47 -74 -8 -81 -25 -22 -56 53 -27 127 -36 389
-43 247 -7 295 -13 372 -46 27 -11 93 -26 149 -35 128 -19 155 -33 181 -92 17
-38 20 -59 15 -123 -3 -47 -11 -86 -22 -102 -38 -58 -136 -61 -415 -12 -188
34 -211 40 -385 111 -223 90 -395 141 -524 155 -53 6 -148 19 -211 30 -64 10
-132 19 -151 19 -66 0 -169 84 -155 128 23 70 157 129 496 217 248 65 509 143
611 183 41 17 138 42 214 56 77 14 154 30 170 36 17 5 66 8 110 7 63 -3 91 -9
125 -28z m2615 -854 c92 -45 233 -193 319 -334 117 -190 159 -227 404 -353
180 -93 203 -109 365 -262 187 -175 276 -301 277 -393 0 -33 -5 -46 -26 -62
-15 -12 -41 -21 -60 -21 -54 0 -317 48 -494 90 -91 21 -246 53 -346 69 -366
62 -493 96 -609 162 -208 118 -287 189 -321 291 -13 41 -14 56 -3 104 7 31 19
63 28 71 27 27 90 7 286 -91 160 -80 214 -102 340 -136 216 -60 300 -78 390
-85 l80 -6 -30 26 c-72 62 -151 105 -286 155 -197 72 -235 92 -311 158 -37 31
-113 86 -170 122 -175 109 -290 194 -310 225 -13 23 -18 49 -17 110 0 118 12
144 79 172 50 21 68 23 205 20 144 -2 152 -3 210 -32z m-1938 -26 c58 -10 63
-13 63 -37 0 -41 -38 -167 -90 -293 -35 -87 -67 -144 -125 -225 -44 -60 -94
-139 -112 -176 -39 -78 -126 -299 -120 -305 2 -2 61 61 131 139 69 79 138 151
151 161 41 29 211 298 361 570 32 58 63 107 68 107 11 0 1 -450 -14 -585 -14
-136 -21 -149 -101 -200 -67 -44 -102 -81 -134 -144 -30 -59 -72 -191 -94
-295 -12 -55 -24 -103 -28 -109 -11 -18 -72 -36 -189 -57 -160 -27 -202 -41
-314 -104 -55 -32 -133 -66 -185 -81 -49 -14 -133 -42 -185 -61 -52 -19 -105
-34 -118 -34 -36 0 -80 27 -97 60 -38 74 -3 169 105 286 107 116 154 192 231
385 70 174 155 346 276 557 35 62 84 158 109 214 24 55 60 120 79 143 68 83
177 111 332 84z m510 -891 c15 -28 18 -58 18 -188 -1 -127 -7 -189 -33 -343
-20 -119 -32 -221 -32 -280 l0 -92 45 80 c79 140 103 195 175 410 64 189 85
266 105 389 l6 38 69 -4 c110 -6 163 -59 175 -174 14 -131 1 -172 -158 -490
-141 -284 -173 -361 -197 -474 -38 -179 -107 -344 -165 -396 -72 -64 -168 -65
-201 -3 -20 39 -46 160 -83 389 -30 181 -87 434 -131 577 l-22 72 22 78 c30
110 91 230 145 283 38 37 214 155 237 159 4 1 15 -14 25 -31z m818 -43 c37
-39 63 -111 119 -327 53 -204 66 -294 66 -453 0 -129 -2 -145 -21 -169 -45
-57 -92 -30 -293 172 l-139 140 64 118 64 119 1 170 c1 238 -2 221 42 244 51
27 60 26 97 -14z"/>
</g>
</svg>
