<?xml version="1.0" standalone="no"?>
<!DOCTYPE svg PUBLIC "-//W3C//DTD SVG 20010904//EN"
 "http://www.w3.org/TR/2001/REC-SVG-20010904/DTD/svg10.dtd">
<svg version="1.0" xmlns="http://www.w3.org/2000/svg"
 width="700.000000pt" height="700.000000pt" viewBox="0 0 700.000000 700.000000"
 preserveAspectRatio="xMidYMid meet">
<metadata>
Created by potrace 1.14, written by Peter Selinger 2001-2017
</metadata>
<g transform="translate(0.000000,700.000000) scale(0.100000,-0.100000)"
fill="#000000" stroke="none">
<path d="M2324 6661 c-28 -13 -46 -30 -60 -57 -20 -40 -21 -69 -13 -279 3 -82
0 -100 -33 -200 -50 -153 -63 -236 -62 -410 1 -178 14 -229 118 -472 114 -267
126 -346 44 -302 -12 6 -56 37 -98 68 -42 32 -119 79 -171 106 -124 64 -225
126 -448 274 -195 129 -327 201 -475 258 -188 72 -331 91 -394 53 -44 -27 -52
-54 -42 -138 19 -147 65 -297 144 -464 24 -51 82 -176 130 -277 47 -101 106
-211 130 -245 48 -67 143 -161 282 -279 51 -43 103 -94 117 -115 38 -54 68
-128 61 -146 -10 -25 -53 -44 -172 -75 -280 -75 -991 -305 -1141 -369 -106
-46 -181 -93 -216 -134 -20 -24 -25 -40 -25 -86 1 -198 202 -314 645 -372 178
-24 272 -51 444 -130 244 -111 354 -143 544 -159 114 -10 174 -27 221 -63 18
-14 16 -18 -35 -104 -30 -49 -89 -170 -132 -269 -228 -523 -271 -613 -406
-843 -115 -194 -118 -324 -11 -380 55 -27 172 -30 287 -6 88 18 123 31 333
124 174 77 281 111 448 141 62 11 130 26 151 34 45 15 51 12 51 -25 0 -15 16
-77 35 -138 27 -83 42 -161 60 -308 45 -359 90 -480 197 -535 95 -49 249 4
322 110 39 55 62 124 100 290 55 235 110 356 215 471 l50 55 133 -136 c117
-121 142 -141 210 -173 97 -47 161 -55 205 -27 39 24 76 95 93 176 17 80 14
269 -6 380 -9 50 -18 120 -21 157 l-5 68 43 -15 c91 -33 244 -66 500 -109 150
-26 335 -65 429 -91 362 -99 615 -114 751 -45 120 62 142 191 60 355 -40 79
-45 84 -466 475 -291 270 -421 397 -412 402 16 8 403 72 752 124 322 47 372
60 519 138 171 90 211 102 346 110 198 12 262 44 319 158 51 101 39 182 -38
251 -21 19 -94 66 -162 104 -265 150 -324 173 -614 238 -258 58 -450 110 -605
165 -80 28 -199 66 -264 85 -65 19 -121 36 -123 39 -2 2 29 21 69 41 103 52
186 108 308 206 159 127 194 151 332 227 199 110 271 168 303 244 39 95 -1
207 -95 267 -42 27 -223 89 -367 125 -109 28 -261 39 -383 26 -132 -13 -199
-33 -390 -115 -190 -81 -190 -81 -190 -56 0 11 12 57 27 103 26 78 28 94 29
278 1 215 1 215 76 435 l51 149 -6 106 c-12 219 -75 350 -168 350 -43 0 -198
-48 -274 -85 -108 -53 -180 -118 -300 -275 -60 -78 -128 -158 -152 -179 -24
-20 -107 -75 -185 -123 -239 -147 -303 -151 -373 -21 -45 83 -78 132 -230 342
-182 252 -278 336 -507 446 -191 91 -326 116 -414 76z m286 -145 c106 -43 182
-103 332 -261 157 -166 235 -266 298 -381 28 -50 78 -113 146 -186 123 -130
124 -133 64 -267 -22 -49 -61 -167 -85 -262 -43 -165 -61 -211 -72 -181 -11
30 -104 145 -189 234 -71 74 -105 121 -149 201 -31 57 -83 134 -115 171 -55
64 -91 134 -139 268 -9 25 -19 50 -23 54 -15 14 -8 -222 8 -317 23 -135 77
-322 130 -457 62 -154 67 -222 30 -375 -14 -60 -26 -116 -26 -125 0 -9 -4 -24
-10 -32 -7 -12 -18 -8 -64 24 -114 79 -163 152 -214 321 -16 55 -57 163 -91
239 -125 285 -131 306 -138 494 -5 161 -4 172 25 302 45 196 53 250 61 399 7
126 8 135 31 153 32 26 100 20 190 -16z m2158 -192 c82 -53 71 -276 -24 -488
-35 -79 -37 -86 -44 -246 -9 -188 -41 -346 -89 -445 -17 -33 -59 -93 -95 -133
-36 -40 -75 -90 -85 -111 -35 -68 -127 -127 -265 -170 -80 -25 -114 -26 -161
-7 -76 32 -54 93 136 376 135 202 217 353 272 500 42 113 101 329 92 338 -10
10 -63 -50 -128 -146 -93 -139 -438 -579 -530 -678 -79 -84 -153 -134 -199
-134 -29 0 -84 64 -98 114 -8 28 -11 75 -8 122 4 64 12 89 51 167 82 165 175
259 316 317 42 18 104 50 138 72 79 50 188 165 237 248 79 132 258 281 386
321 30 9 67 3 98 -17z m-3720 -798 c27 -13 86 -53 132 -87 47 -34 140 -95 207
-135 68 -40 173 -111 235 -157 119 -88 196 -136 418 -260 74 -41 189 -114 255
-161 66 -47 156 -104 200 -127 227 -119 309 -203 331 -336 7 -44 -2 -133 -14
-133 -4 0 -50 39 -102 86 -252 228 -320 272 -583 373 -232 90 -383 154 -510
218 -49 24 -85 38 -81 31 26 -45 142 -183 200 -238 121 -115 186 -160 479
-330 88 -51 161 -93 163 -95 1 -1 0 -9 -3 -18 -13 -34 -59 -40 -235 -32 -164
7 -171 6 -207 -15 -24 -14 -61 -24 -100 -28 -61 -5 -64 -4 -90 28 -89 104
-184 194 -306 287 -218 167 -234 192 -357 538 -44 127 -101 280 -126 340 -95
229 -57 328 94 251z m4650 -466 c228 -37 344 -78 373 -132 30 -56 -60 -127
-347 -272 -160 -81 -225 -122 -333 -214 -93 -79 -125 -93 -271 -117 -80 -13
-116 -26 -225 -80 -133 -67 -235 -100 -405 -135 -111 -23 -287 -43 -322 -38
-20 3 -16 8 32 39 30 20 114 69 185 109 194 108 263 155 341 234 58 58 75 82
88 126 9 29 16 64 16 78 0 22 -6 18 -64 -35 -105 -96 -289 -188 -494 -248 -96
-28 -260 -57 -273 -49 -5 3 -9 35 -9 72 0 115 27 134 282 193 207 47 240 64
313 164 63 85 144 141 296 204 136 57 262 87 484 114 82 11 218 5 333 -13z
m-2159 -376 c69 -20 141 -90 160 -154 8 -25 18 -101 22 -170 4 -69 11 -144 14
-166 7 -41 -14 -104 -34 -104 -4 0 -13 -17 -19 -38 -6 -20 -27 -63 -47 -96
-29 -49 -35 -68 -35 -115 1 -136 83 -211 232 -211 62 0 80 -4 123 -29 60 -35
140 -116 189 -191 33 -50 36 -61 36 -128 0 -64 -3 -76 -25 -97 l-24 -25 -721
0 -721 0 -24 25 c-22 21 -25 33 -25 96 0 64 4 77 34 128 42 68 125 153 186
189 37 22 61 28 137 32 81 5 97 9 135 35 90 63 117 194 58 279 -16 24 -37 63
-47 87 -9 24 -28 60 -41 79 -19 29 -22 43 -17 80 3 25 9 101 14 170 4 69 14
145 21 170 19 61 90 131 155 152 65 22 196 23 264 2z m1765 -789 c66 -13 198
-45 291 -70 94 -25 269 -66 390 -91 242 -49 318 -70 407 -115 33 -17 93 -43
133 -58 40 -16 88 -40 107 -54 18 -14 69 -43 114 -65 161 -81 189 -167 73
-228 -55 -28 -89 -35 -229 -44 -154 -10 -203 -24 -397 -114 -144 -66 -214 -86
-304 -86 -93 0 -216 -23 -393 -75 -190 -55 -343 -79 -511 -79 -141 -1 -169 7
-185 50 -13 33 -1 61 59 139 31 40 52 79 56 103 15 91 25 94 420 102 l320 6
115 43 c63 24 161 54 218 66 57 13 105 25 108 28 3 2 -33 12 -80 22 -71 15
-118 17 -292 13 -263 -7 -396 3 -559 42 -216 51 -264 68 -271 96 -3 13 -5 91
-3 173 4 164 10 179 74 207 50 22 202 17 339 -11z m-3461 -74 c66 -32 90 -75
94 -170 5 -90 -7 -119 -58 -144 -32 -15 -45 -16 -120 -6 -138 19 -324 6 -578
-40 -123 -22 -252 -44 -287 -47 -35 -4 -64 -10 -64 -14 0 -12 35 -39 70 -54
50 -20 115 -26 395 -35 244 -8 252 -9 340 -39 50 -18 125 -37 169 -43 99 -13
117 -20 149 -58 32 -39 42 -85 33 -163 -7 -72 -18 -93 -59 -118 -47 -29 -130
-26 -365 15 -196 34 -213 39 -402 115 -229 92 -425 147 -572 160 -57 5 -136
16 -176 25 -40 8 -91 15 -112 15 -50 0 -83 13 -131 51 -56 44 -55 84 3 133 23
20 45 36 50 36 5 0 57 18 116 40 59 22 187 60 284 84 220 56 491 137 606 181
48 18 139 43 202 54 63 12 140 28 170 36 77 20 185 14 243 -14z m2607 -852
c116 -55 240 -185 345 -361 89 -151 170 -220 375 -323 170 -85 231 -128 377
-266 149 -140 199 -200 249 -294 52 -101 41 -163 -31 -181 -34 -8 -297 36
-509 86 -92 22 -235 51 -319 65 -241 40 -405 75 -497 105 -103 34 -311 155
-376 219 -60 59 -96 131 -96 192 0 62 29 123 61 127 30 5 120 -33 286 -119 72
-37 167 -79 213 -93 161 -50 388 -104 467 -111 44 -4 89 -9 100 -12 29 -8
-102 95 -157 123 -25 13 -108 47 -185 75 -175 65 -196 76 -274 142 -35 30
-116 87 -179 127 -227 145 -307 206 -320 246 -19 57 -8 201 18 226 42 43 116
58 262 56 122 -3 140 -6 190 -29z m-1928 -31 l70 -11 -6 -45 c-8 -57 -68 -235
-111 -329 -19 -40 -61 -110 -94 -155 -94 -131 -127 -192 -191 -355 -33 -84
-60 -155 -60 -158 0 -3 60 61 134 142 73 82 150 164 171 183 51 48 290 432
381 611 23 46 27 50 37 34 20 -36 -8 -600 -34 -682 -7 -23 -27 -43 -73 -71
-106 -68 -144 -125 -199 -297 -14 -44 -33 -120 -43 -168 -13 -67 -22 -92 -38
-102 -12 -8 -84 -26 -161 -40 -155 -28 -245 -55 -290 -86 -66 -44 -166 -89
-260 -114 -55 -15 -133 -41 -173 -57 -88 -35 -124 -32 -168 13 -24 26 -29 38
-29 82 0 71 30 128 119 224 118 128 155 192 232 391 49 127 168 366 269 542
37 63 88 163 114 222 68 151 112 198 209 224 60 16 106 17 194 2z m1200 -35
c10 -9 18 -25 18 -37 0 -14 -76 -97 -227 -248 -179 -179 -233 -228 -254 -228
-19 0 -47 22 -112 89 -48 49 -87 97 -87 106 0 10 7 27 17 37 29 32 60 22 124
-39 l60 -57 197 197 c206 205 223 217 264 180z m-686 -865 c31 -70 25 -286
-16 -513 -17 -99 -34 -229 -37 -290 -6 -131 -8 -133 94 65 54 104 87 190 146
370 42 129 82 269 89 310 l13 75 55 3 c63 3 118 -23 154 -71 19 -26 21 -42 21
-161 l0 -132 -153 -306 c-147 -295 -155 -313 -192 -460 -84 -337 -154 -448
-280 -448 -90 0 -106 44 -170 450 -21 133 -96 461 -125 547 -8 24 -15 61 -15
82 0 87 79 277 147 352 20 22 78 65 129 95 52 30 96 59 99 64 11 18 22 10 41
-32z m787 -10 c54 -28 85 -101 146 -338 62 -246 73 -323 69 -487 -3 -112 -6
-134 -22 -152 -44 -48 -79 -27 -276 167 l-152 150 41 74 c90 156 101 201 91
363 -3 50 -4 114 -1 143 3 49 6 54 40 72 44 23 38 22 64 8z"/>
</g>
</svg>
