<?xml version="1.0" encoding="UTF-8" standalone="no"?>
<!-- Generator: Adobe Illustrator 23.1.1, SVG Export Plug-In . SVG Version: 6.00 Build 0)  -->

<svg
   version="1.1"
   preserveAspectRatio="none"
   id="Ebene_1"
   x="0px"
   y="0px"
   viewBox="0 0 2497.5 109.8"
   xml:space="preserve"
   sodipodi:docname="bergkette.svg"
   width="2497.5"
   height="109.8"
   inkscape:version="1.1 (c4e8f9ed74, 2021-05-24)"
   xmlns:inkscape="http://www.inkscape.org/namespaces/inkscape"
   xmlns:sodipodi="http://sodipodi.sourceforge.net/DTD/sodipodi-0.dtd"
   xmlns="http://www.w3.org/2000/svg"
   xmlns:svg="http://www.w3.org/2000/svg"><defs
   id="defs9" /><sodipodi:namedview
   id="namedview7"
   pagecolor="#ffffff"
   bordercolor="#666666"
   borderopacity="1.0"
   inkscape:pageshadow="2"
   inkscape:pageopacity="0.0"
   inkscape:pagecheckerboard="0"
   showgrid="false"
   fit-margin-top="0"
   fit-margin-left="0"
   fit-margin-right="0"
   fit-margin-bottom="0"
   inkscape:zoom="0.54570801"
   inkscape:cx="-375.65877"
   inkscape:cy="-360.99891"
   inkscape:window-width="1920"
   inkscape:window-height="1035"
   inkscape:window-x="0"
   inkscape:window-y="0"
   inkscape:window-maximized="1"
   inkscape:current-layer="Ebene_1" />
<style
   type="text/css"
   id="style2">
	.st0{fill:#057CC1;}
</style>
<path
   class="st0"
   d="M 2230.8,0 H 2024.4 2023.9 0 v 82.5 c 0,0 12.850836,-4.624495 18.379385,-7.604701 C 23.907934,71.915093 28.600729,67.751144 33.1,64.9 c 4.499271,-2.851144 9.5,-4.6 12.2,-7.2 1.6,-1.6 3.9,-4 4.7,-4.2 0.4,-0.1 9.3,16.7 16,19 1.6,0.5 9.8,9.6 13.5,7.2 2.2,-1.5 3,-2.5 5.9,-4.7 1.3,-0.9 2,-2.8 2.8,-2.6 0.5,0.1 1.1,1.9 1.5,2.6 1.1,1.8 4.5,2.8 7,3.8 0,0 2.7,1.5 4.7,3 2,1.5 2.8,3.4 5.4,4.5 4.8,2.2 5.7,3.5 7.5,4.6 1.8,1.1 3.8,3.8 5.2,4 1.5,0.2 1.5,-0.2 6.5,-2.9 5.1,-2.8 6.2,-5 7.6,-3.2 1.5,1.8 3.1,3.1 6.1,4.7 2.9,1.6 1.5,0.8 7.8,3.3 6.4,2.4 4.3,2.3 6.4,2.4 1.5,0.1 4.4,1.9 7.6,2.6 1.3,0.3 8.7,1.1 12.2,0.3 3.4,-0.8 6.4,-3.2 8.7,-4.4 4.1,-2.1 4.8,-3.3 5.4,-3.7 0.6,-0.4 2.4,3.1 4.2,3.9 1.8,0.8 10.9,3.8 13,4.2 2,0.5 1.6,1.8 5.7,-1 4.1,-2.8 5.8,-3.6 6.3,-4.4 1,-1.6 2.1,1.3 4.1,1 3.2,-0.5 6,-4.7 7.7,-5.2 4.4,-1.4 2.3,-2.1 6.6,-5 2.6,-1.7 1.9,-2.1 4.5,-4.4 2.5,-2.2 3.6,-3.7 4.4,-4.7 0.3,-0.4 1.1,1 1.9,2.3 2,3.3 5.5,4.5 7.4,5.9 2,1.5 1.6,2.1 6,2 4.4,-0.2 3.9,-1.4 6.2,0.7 2.3,2.1 3.4,2.4 5.1,2.4 1.6,0 3.3,-2.3 5.7,-4.1 2.4,-1.8 2,-2.6 3.8,-1.3 1.3,0.9 1.1,1.4 2,2 0.4,0.3 2.3,0.2 2.8,0.5 0.8,0.6 4.1,0.4 6.2,2.2 1.6,1.3 4,1.4 5.3,1.8 0.4,0.1 10.1,0.4 14.2,-1.8 4.1,-2.3 8.9,-1.9 13.5,-5.2 2.8,-2.1 5.4,-3.6 6.7,-4.5 1.6,-1.1 2.5,-4.2 3.1,-3.7 1.6,1.3 2.6,2.9 6.5,4.8 3.9,2 4.5,3 7.9,4.2 5.3,1.8 9.4,2.2 9.9,2.4 2.1,1 5.2,-0.8 6.1,-0.8 0.9,0 4.5,-3.4 5.9,-3.8 0.2,-0.1 0.5,0.5 0.9,0.9 0.3,0.3 2.8,2 4.3,2.4 1.3,0.3 4.3,-2.6 4.6,-2.8 2.8,-2.1 4.5,-4.6 4.7,-5 0.5,-1 1.5,1.2 1.9,1.5 0.7,0.6 2.2,1.6 3.8,2.9 1.2,0.9 2.6,0.7 3.7,0.9 1.2,0.3 2.1,1.1 4,0.5 3.2,-1.1 7.7,-6.8 8.7,-7.7 3.2,-3 2.6,-4 5.8,-9.2 3.2,-5.1 2.9,-5.2 4,-3.7 1.1,1.5 2,3.8 4.4,5.4 2.4,1.6 2,1.1 5.7,3.4 3.8,2.3 3.8,1.5 6.5,3.1 2.8,1.6 2.1,1.5 6.2,2.9 4.1,1.5 2,0 6.5,2.1 4.6,2.1 5.1,2.8 8.3,4.4 3.2,1.6 12.1,1.3 14.1,1.5 2.8,0.2 2.6,0.7 5.6,-1.5 2.9,-2.1 4.3,-4.5 5.1,-4.4 0.8,0.1 1.8,1.9 5,4 3.3,2.1 1.5,1.6 7,3.6 5.5,2 5.1,1.2 7.5,1.5 3.5,0.4 6.7,1.2 7.8,0.7 1.1,-0.5 4.3,0.2 7.7,-1.9 2.1,-1.3 4,-0.3 6.9,-1.2 1.7,-0.5 3.9,-0.6 7.2,-2.7 3.3,-2.1 4.3,-3.9 5,-4 0.8,-0.1 2.1,2.3 5.1,4.4 2.9,2.1 5.1,3.4 7.8,3.3 2.1,-0.1 12.8,-2.2 13.7,-2.7 3.2,-1.8 14.6,-5.5 18.6,-8.6 1.2,-1 7.5,-4.9 12.2,-7.4 0.4,-0.2 0.7,-0.4 0.9,-0.5 1.8,-1.2 6.6,-6.4 7.5,-5 1.6,2.6 5.5,4.9 12.2,2.8 4.8,-1.5 12.4,-12.2 17.6,-15.4 8.4,-5.2 9.5,-10.1 10.2,-10.3 0.1,0 2.3,-2.8 3.1,-2.2 4.1,3.1 4,1.7 6.5,1 0.6,-0.1 3.1,0.9 3.9,0.7 3.2,-0.8 4.6,-3.8 7.7,-5.6 4.5,-2.5 11,-13.3 12.2,-12.4 3.2,2.7 5.5,10.3 14,20.5 4.6,5.6 10,13.9 14.4,21 1.5,2.4 16.3,9.8 18.8,13 2.2,2.8 12.8,13.2 18.8,15 2.9,0.9 9,7.5 14.7,8.6 5,1 8.3,-2 10.2,-3.5 2,-1.5 5.5,-2.7 7.4,-5.9 0.7,-1.2 1.5,-2.7 1.9,-2.3 0.8,1 1.9,2.5 4.4,4.7 2.6,2.3 2,2.6 4.5,4.4 4.3,2.9 2.1,3.6 6.6,5 1.8,0.6 4.5,5.1 7.7,5.2 0.8,0 1.1,-0.6 2.9,-0.9 2,-0.3 7.3,-5.6 7.7,-5.9 0.5,-0.4 1,-0.8 1.4,-1.1 1.4,-1 4.6,-3.6 6.1,-5.4 0.9,-1.1 1.6,-1.5 1.9,-2 0.9,-1.3 1,-2.1 1.3,-1.8 0.5,0.4 0.6,1.4 1.1,2.1 1.3,2 2.6,4.1 3.3,3.4 0.6,-0.7 1.8,-1.2 2.5,-1.7 0.8,-0.6 0.9,-1.2 1.2,-1 0.7,0.4 0.8,1.4 4.9,3.4 2.3,1.2 5.4,5.3 10.6,5.2 5.2,-0.1 10.7,-2 11.3,-2.1 3.2,-0.7 6.1,-2.5 7.6,-2.6 2.1,-0.2 0,0 6.4,-2.4 6.4,-2.5 4.9,-1.6 7.8,-3.3 2.3,-1.3 4.5,-2.4 5.8,-3.3 1.5,-1.1 2.1,-1.9 2.4,-1.9 0.5,0 0.8,0.7 1.4,1.2 1,0.8 2.4,1.6 4.1,2.6 1.6,0.9 5.7,0.3 6.9,-0.5 1.2,-0.8 7.8,-6.5 10.3,-10.9 0.5,-0.9 2.1,1.7 3.7,2 2,0.5 5.9,-11.4 7.4,-11 0.6,0.1 2.3,-3.2 3,-2.8 2.3,1.6 4.5,6.6 5.1,5.7 0.2,-0.3 3.8,1.4 4.2,1.9 2.7,3.4 3.7,1.9 5.9,3.4 3.6,2.4 2.1,0.1 4.8,3 0.6,0.6 3.3,2.9 6.3,4.5 2.9,1.6 1.6,0.7 4.1,2.8 2.4,2.1 3.8,2.8 5.7,3.6 2,0.8 2.1,0.2 5.5,-1.6 1.3,-0.7 2.4,-1.8 2.9,-1.6 0.7,0.2 3.1,2.6 4.7,4.2 2.6,2.6 13.6,4.4 15.8,4.6 2.2,0.2 1.5,-0.5 3.3,-0.8 0.6,-0.1 5.5,-4.3 6.4,-4.6 0.6,-0.2 3.8,-2 4.6,-3.2 0.7,-1.1 5.5,-1.8 7.3,-3 1.8,-1.3 5.5,-2.2 15.7,-7 0.4,-0.2 5.3,-3.7 6.7,-3.8 1.4,-0.1 1.7,-2.6 3.7,-3.5 2.2,-1 4.7,-1.7 5.3,-2.6 0.4,-0.6 1.7,-0.6 2.3,-1.9 0.6,-1.3 4.7,-4.9 5.3,-6 0.6,-1.1 1,-0.9 2,-2.3 0.9,-1.3 1.7,-3.4 2.9,-2 2.1,2.6 2.8,1.5 5.5,4.7 2.8,3.2 3.7,4.9 4.4,5.6 0.8,0.7 3.7,4.7 4.6,5.4 0.6,0.5 3.2,0.6 4.3,1.7 1.7,1.7 4.6,0.6 4.9,0.8 4.1,-1.5 8,-5.4 10.2,-6.8 2.2,-1.4 7,-3.3 8.1,-4.9 0.2,-0.2 0.3,-0.6 0.5,-0.8 0.3,-0.3 0.5,0.4 1.1,1.1 l 1,1 c 1.1,1 2.8,2.3 4.6,3.3 0.4,0.2 9.2,-1.7 9.9,-2.3 0,0 3,-0.4 4.3,-0.9 1.1,-0.4 2,-1.8 3,-2.5 1.9,-1.5 2.6,-3.2 3.9,-4.1 0.2,-0.2 0.8,-1.2 1.2,-1.4 0.5,-0.2 0.8,-0.9 1,-0.8 0.6,0.3 1.1,0.2 1.6,0.6 0.9,0.9 2,0.1 2.9,-2.8 0.1,-0.4 0.4,-1.5 0.6,-1.6 0.2,-0.2 0.2,-0.8 0.5,-0.8 0.3,0.1 0.6,0.8 1,1.1 0.5,0.4 1.5,2.3 2,2.8 1.1,1.1 1.8,0.6 2.8,0.8 0.9,0.2 2.2,0.5 3.4,0.5 2,0 4.3,-0.7 6.4,-1 0.3,0 6.8,-0.6 7.4,-0.5 1.1,0.2 2.1,-0.4 3.1,-0.8 4.3,-1.9 7.8,-7.8 13.2,-10.4 0.2,-0.1 2.8,-1.6 3.3,-1.9 0.7,-0.3 3.4,-1.4 3.9,-1.7 1,-0.5 1.7,-1.2 2.4,-1.6 2.7,-1.6 2.9,-1.7 3.5,-2.5 0.4,-0.5 1,-0.5 1.4,-1.3 0.4,-0.8 1.5,1.3 2,2.1 0.3,0.5 1.8,1.3 2,1.4 1,0.7 2.2,0.2 3.6,-0.5 0.9,-0.4 2,-1.6 2.6,-1.7 0.9,-0.1 4.4,-1.5 6.7,-2 1.2,-0.2 1.6,-0.6 3.2,-1.3 1.3,-0.5 3.4,-1.9 7.1,-3 0.6,-0.2 2.3,-0.7 2.7,-0.9 0.3,-0.1 1.2,-0.5 1.4,-0.7 0.9,-0.5 1.9,-2.3 2.4,-2.6 0.1,0 1.1,0 2.1,-2.1 0.6,-1.2 1.6,-2.3 2.1,-3 0.6,-0.9 1.6,-2.4 2.2,-3.2 1.2,-1.8 1.5,-2.7 1.6,-2.7 0.8,0 1.6,2.3 2.6,3.5 1,1.1 2.4,2.7 3.8,4.3 0.3,0.4 0.8,0.4 1.1,0.8 2.3,2.8 6.8,8.2 8.3,8.8 0.7,0.3 1.4,2.6 2,3.2 1.8,1.7 4.5,4.2 6.5,6 1.9,-2.9 3.3,-5.1 4.9,-6.2 1.1,-0.8 7.6,8.6 12.2,10.8 3.2,1.5 4.5,4.2 7.7,4.9 0.8,0.2 3.4,1.9 10.4,-1.5 0.9,-0.4 3,1.9 3.1,1.9 0.6,0.2 1.8,4.5 10.2,8.9 5,2.7 15.6,12.4 20.6,13.5 6.7,1.5 7.5,-0.3 9.1,-2.6 0.8,-1.2 5.7,3.3 7.5,4.4 0.2,0.1 0.5,0.2 0.9,0.4 4.7,2.1 10.9,5.6 12.2,6.4 0.7,0.5 1.6,0.9 2.6,1.4 l 0.1,-0.1 c 0.9,-1.2 2,-2.7 2.4,-2.3 1,1 2.4,2.5 5.6,4.7 1,0.7 6.6,3.2 7.7,3.8 0.9,0.4 11.6,2.3 13.7,2.4 2.8,0.1 4.9,-1 7.8,-2.8 2.9,-1.8 4.3,-3.9 5.1,-3.8 0.8,0.1 1.8,1.7 5,3.5 1.3,0.7 2.5,1.2 3.5,1.5 0.1,0 0.3,-0.1 0.4,-0.1 0.3,0 2.2,-2.6 2.5,-2.6 3.1,0.1 9.4,2.2 13.9,2 4.5,-0.2 16.6,2.5 21,3.3 1.2,0.2 9.5,0.2 11.7,0.1 1.9,-0.1 3.4,-0.3 3.9,-0.4 4.1,-0.7 7.8,-2.5 9.7,-2.6 2.2,-0.1 6.6,-2 8.2,-2.4 8.2,-2.4 6.3,-1.6 10,-3.3 0.9,-0.4 3,-1.3 4.7,-1.7 1.7,-0.3 2.4,-1.2 3.4,-2 0.8,-0.7 1.8,-2.7 2.3,-2.7 0.3,0 0.9,1.2 1.5,1.7 0.5,0.5 1.1,0.3 1.4,0.6 1,0.7 2.2,1.8 4.2,2.7 6.5,2.8 6.6,0.6 8.9,-0.5 1,-0.5 2.1,-1.1 5.3,-3.2 0.9,-0.6 3.5,-3 4.4,-3.4 1.5,-0.8 2.2,-1.6 2.8,-2.4 0.3,-0.4 0.3,0 1.3,0.7 1,0.7 1.3,1.1 4.9,1.7 0.6,0.1 3.6,-0.4 4.4,-0.6 2.2,-0.7 3.9,-1.8 5.7,-2.6 2.5,-1.1 7.5,-5.7 8.7,-6.5 2.8,-1.9 1.8,-4.3 4.8,-1.3 3.5,3.4 5.6,4.4 8.5,5.9 4.6,2.4 2.7,0.1 6.2,3 0.8,0.6 4.3,2.9 8,4.5 3.8,1.6 2.1,0.7 5.2,2.8 3.1,2.1 4.8,2.8 7.3,3.6 1.8,0.6 2.4,0.4 4.4,-0.4 0.7,-0.3 2.7,-0.9 3.8,-1.4 1.7,-0.7 2,-2.6 2.6,-2.4 l 0.4,-0.6 c 1.3,0.5 3.1,4 5.5,5.8 1.2,1 4.1,2.8 6.6,3.8 1.1,0.4 3.4,1.3 4.2,1.7 1.4,0.6 2.5,1.1 3.3,1.4 0.7,0.2 1.1,0.4 1.4,0.3 1.4,-0.5 3.9,-2.4 4.6,-2.6 0.7,-0.2 1.9,-0.5 4.2,-0.8 1.2,-0.2 7.9,-3.2 8.6,-3.6 1.1,-0.6 2.1,-1.2 2.6,-1.6 1.3,-1 6.8,-3 7.3,-4 0.9,-1.8 4.6,-3.6 4.6,-3.6 2.2,-1.1 3.6,-5.6 5.7,-9.7 0.3,-0.5 1.6,-1.2 1.9,-1.7 1.2,-2.3 3.9,-4.1 4.8,-3.7 0.7,0.3 1.5,-0.1 2.1,0.1 0.1,0 0.2,0.1 0.4,0.2 0.8,0.5 4,0.6 4.8,-0.4 1.4,-1.7 2.2,-2.5 3.3,-3.1 0.4,-0.2 0.7,-0.7 2.2,-1.4 0.3,-0.2 1.5,-1.5 1.9,-1.6 3.3,-0.7 6.4,-2.3 7.1,-2.7 1.2,-0.7 6,-4.2 6.8,-5.1 0.5,-0.6 3.9,-2.7 5.3,-3.3 0.8,-0.3 1.9,-2.6 2.6,-3.2 0.8,-0.7 2.2,-3.1 2.5,-3.4 0.8,-1.1 0.3,-0.8 1.6,-2.2 0.9,-1 2.3,-3 2.9,-3 0.3,0 0.8,0.6 1.1,0.9 2.4,2.3 0.7,1.9 3.3,4.1 2.7,2.2 3.5,2 5.1,3.4 3.6,3.2 3,2.1 4,2.9 1,0.7 3.3,2.1 4.4,2.7 1.1,0.7 4.7,3.6 6,4.7 1.3,1.1 6.4,4.5 12.1,8.1 5.6,3.5 13.3,6.1 15.1,7.4 2.8,1.5 6.7,6.5 9.2,8.9 0.9,0.9 4,3 7.2,4.1 1.9,0.6 3.9,2.1 5.1,1.8 1.1,-0.3 2.6,0.9 3.8,0 1.6,-1.3 2.5,-1.3 3.2,-1.9 0.4,-0.3 1.4,-2.6 1.9,-1.5 0.2,0.4 1.9,2.9 4.7,5 0.3,0.2 3.3,3.2 4.6,2.8 1.6,-0.4 4,-2 4.3,-2.4 0.3,-0.4 0.7,-0.9 0.9,-0.9 1.4,0.4 5.1,3.9 5.9,3.8 0.9,0 3.9,1.8 6.1,0.8 0.5,-0.2 4.6,-0.7 9.9,-2.4 3.4,-1.1 4,-2.2 7.9,-4.2 3.9,-2 4.9,-3.5 6.5,-4.8 0.6,-0.5 1.5,2.6 3.1,3.7 1.3,0.9 3.9,2.4 6.7,4.5 2.3,1.7 6.9,3.9 13.5,5.2 2.2,0.4 5.7,-0.4 8.1,-2 0.8,-0.5 1.3,1 2.1,1.3 1.9,0.6 4,1.1 4.2,1.1 1.2,-0.4 3.4,1 5,-0.4 2.1,-1.8 5.5,-1.6 6.2,-2.2 0.5,-0.4 2.5,-0.3 2.8,-0.5 1,-0.7 0.7,-1.1 2,-2 0.7,-0.5 0.6,-0.9 1,-1.2 0.4,-0.3 1.3,1.5 2.8,2.6 2.4,1.8 8.5,3.8 10.8,1.6 0.9,-0.8 1.7,-2.7 2.1,-2.1 0.2,0.3 2.4,2.1 4.1,1.5 4.1,-1.6 4.1,-0.5 6,-2 2,-1.5 5.5,-2.7 7.4,-5.9 0.7,-1.2 1.5,-2.7 1.9,-2.3 0.8,1 1.9,2.5 4.4,4.7 2.6,2.3 2,2.6 4.5,4.4 4.3,2.9 2.1,3.6 6.6,5 1.8,0.6 4.6,4.8 7.7,5.2 1,0.2 8.8,3.4 10.4,3.4 1.2,0 3.8,1.5 5.7,1 2,-0.5 8.1,-3.7 9.3,-5 0.5,-0.5 1.8,1.5 3.6,0.7 1.8,-0.8 3.7,-4.3 4.2,-3.9 0.7,0.4 1.3,1.6 5.4,3.7 2.3,1.2 5.3,3.6 8.7,4.4 1.5,0.4 8.5,-3.6 9,-3.3 2,1.2 2.5,2 4.2,2.6 0,0 1.9,-1.3 4.4,-4.6 1.4,-1.8 2.5,-3.1 3.2,-4 v -0.7 0.7 c 1.7,0.5 3.7,0.9 5.1,0.4 4.7,-1.6 2.9,-1.3 4.9,-2.5 1.9,-1.1 2.8,-2.4 8.1,-4.6 2.8,-1.2 5.8,-4.5 5.8,-4.5 0,0 5.9,-4.4 6.8,-4 1,0.4 1.3,-0.4 2.5,-1.4 1.4,-1.2 2.2,-1.2 2.8,-2.3 0.6,-0.9 1.5,-2.3 1.8,-2.5 1,-0.5 1.9,2.5 3.3,3.4 3.2,2.1 4,3.2 6.4,4.7 3.9,2.4 2.3,0.1 5.2,3 0.6,0.6 3.6,2.9 6.8,4.5 3.1,1.6 1.7,0.7 4.4,2.8 2.6,2.1 4.1,2.8 6.1,3.6 2,0.8 2.3,0.2 5.9,-1.6 1.4,-0.7 2.8,-0.9 3.1,-1.6 0.2,-0.8 3.3,2.6 5.1,4.2 1.2,1.1 9.3,4.7 9.4,4.9 0.4,0.8 1.1,1.5 1.8,1.5 2.5,0.1 5,-1 5.7,-1.8 0.4,-0.5 1.6,-0.5 3.6,-0.8 2,-0.3 8.1,-3.8 9.7,-5.2 1.5,-1.4 5.2,-3.5 6.1,-4.8 1.2,-1.6 3.6,-2.9 3.6,-2.9 0.3,-0.3 1.2,-0.7 2.2,-1.4 1.5,-1 3.5,-2.4 5.2,-4.1 3,-3 6.5,-5.5 7.6,-7.2 1.2,-1.7 3.5,-4.9 4.4,-5.5 0.2,-0.2 0.9,-1.2 1.6,-1.8 1.6,-1.2 2.3,-0.8 2.7,-1 2.6,-1.4 4.5,-2.5 5.1,-2.9 1,-0.7 5.1,-4.2 5.7,-5.1 0.4,-0.6 1.4,-2.6 2.2,-3.9 0.6,-1.3 5.1,-4.9 5.7,-6 0.6,-1.1 1.1,-0.9 2.2,-2.3 0.8,-1 1.9,-2.6 2.4,-2.7 0.3,-0.1 0.4,0.4 0.8,0.7 2.3,2.6 3,1.5 5.9,4.7 3,3.2 4,4.8 4.7,5.6 0.9,0.7 2.8,2.1 3.8,2.7 0.5,0.4 2.8,2.3 3.2,2.5 1,0.5 1.4,1.8 1.8,2.2 1.1,1.1 4.5,6.4 9,7 0.2,0 4.4,1.5 5.5,2.3 0.4,0.4 0.9,0.5 1.3,0.7 18.1,6.5 25,10.4 27.4,12.7 0.8,0.8 2.5,3.1 5.8,4.5 5.1,2.2 6.1,3.5 8,4.6 1.9,1.1 4.1,3.8 5.6,4 1.6,0.2 1.6,-0.2 6.9,-2.9 5.4,-2.8 6.6,-5 8.1,-3.2 1.6,1.8 3.3,3.1 6.5,4.7 3.1,1.6 1.6,0.8 8.3,3.3 6.8,2.4 4.6,2.3 6.8,2.4 1.6,0.1 4.7,1.9 8.1,2.6 1.4,0.3 9.3,1.1 12.9,0.3 3.6,-0.8 6.8,-3.2 9.3,-4.4 4.4,-2.1 5.1,-3.3 5.8,-3.7 0.6,-0.4 2.6,3.1 4.5,3.9 1.9,0.8 11.6,3.8 13.8,4.2 2.1,0.5 1.7,1.8 6.1,-1 4.4,-2.8 6.2,-3.6 6.7,-4.4 1.1,-1.6 2.2,1.3 4.4,1 3.4,-0.5 6.4,-4.7 8.2,-5.2 4.7,-1.4 2.5,-2.1 7,-5 2.8,-1.7 2,-2.1 4.8,-4.4 2.7,-2.2 3.8,-3.7 4.7,-4.7 0.3,-0.4 1.2,1 2,2.3 2.1,3.3 5.9,4.5 7.9,5.9 2.1,1.5 1.7,2.1 6.4,2 4.7,-0.2 4.2,-1.4 6.6,0.7 2.5,2.1 3.6,2.4 5.4,2.4 1.8,0 3.5,-2.3 6.1,-4.1 2.6,-1.8 2.1,-2.6 4.1,-1.3 1.4,0.9 1.2,1.4 2.1,2 0.4,0.3 2.5,0.2 3,0.5 0.9,0.6 4.4,0.4 6.6,2.2 1.7,1.3 4.3,1.4 5.7,1.8 0.4,0.1 10.8,0.4 15.1,-1.8 4.4,-2.3 9.5,-1.9 14.3,-5.2 3,-2.1 7.2,-4.3 7.2,-4.3 V 0 Z"
   id="path4"
   sodipodi:nodetypes="ccccczzcsccccccscscccccccccsscssccccccccsssccccccccccccscsccsccccccssccccsccscscsccscccccccccccccscccccccccccccccccccccccccscccccsccsccccsccccccccsssscccscssscccccscscsccccccccscccccscsccccccccscccccccccccccscccccccccccccccccccscccssccscsccccccccsccccccssscccccccsccccccccccscccsccccccccccccccccscccccsccccccccccsccccscccccccccccsccsccccccccsccscccscccccccccccccccsccssccsccsccccscccccscsccccccsscccccscccccccsccscsccccccccccsscccccccccc"
   style="fill:#0088ce;fill-opacity:1" />
</svg>
