<?xml version="1.0" encoding="UTF-8" standalone="no"?>
<!-- Generator: Adobe Illustrator 23.1.1, SVG Export Plug-In . SVG Version: 6.00 Build 0)  -->

<svg
   version="1.1"
   preserveAspectRatio="none"
   id="Ebene_1"
   x="0px"
   y="0px"
   viewBox="0 0 2497.5 109.8"
   xml:space="preserve"
   sodipodi:docname="bergkette.svg"
   width="2497.5"
   height="109.8"
   inkscape:version="1.1.1 (3bf5ae0d25, 2021-09-20)"
   xmlns:inkscape="http://www.inkscape.org/namespaces/inkscape"
   xmlns:sodipodi="http://sodipodi.sourceforge.net/DTD/sodipodi-0.dtd"
   xmlns="http://www.w3.org/2000/svg"
   xmlns:svg="http://www.w3.org/2000/svg"><defs
   id="defs9" /><sodipodi:namedview
   id="namedview7"
   pagecolor="#ffffff"
   bordercolor="#666666"
   borderopacity="1.0"
   inkscape:pageshadow="2"
   inkscape:pageopacity="0.0"
   inkscape:pagecheckerboard="0"
   showgrid="false"
   fit-margin-top="0"
   fit-margin-left="0"
   fit-margin-right="0"
   fit-margin-bottom="0"
   inkscape:zoom="2.0925147"
   inkscape:cx="852.08483"
   inkscape:cy="85.781956"
   inkscape:window-width="1920"
   inkscape:window-height="1058"
   inkscape:window-x="0"
   inkscape:window-y="0"
   inkscape:window-maximized="1"
   inkscape:current-layer="Ebene_1" />
<style
   type="text/css"
   id="style2">
	.st0{fill:#057CC1;}
</style>
<path
   id="rect1027"
   style="fill:#ffffff;stroke-width:1.88976;stroke-dashoffset:340.373;paint-order:markers stroke fill"
   d="M 1223.0996 16.699219 C 1222.9996 16.699219 1222.7 17.600391 1221.5 19.400391 C 1220.9 20.200391 1219.9008 21.699609 1219.3008 22.599609 C 1218.8008 23.299609 1217.7992 24.399609 1217.1992 25.599609 C 1216.1992 27.699609 1215.1996 27.699219 1215.0996 27.699219 C 1214.5996 27.999219 1213.5992 29.800781 1212.6992 30.300781 C 1212.4992 30.500781 1211.6008 30.9 1211.3008 31 C 1210.9008 31.2 1209.1996 31.700391 1208.5996 31.900391 C 1204.8996 33.000391 1202.8 34.400391 1201.5 34.900391 C 1199.9 35.600391 1199.5008 35.999219 1198.3008 36.199219 C 1196.0008 36.699219 1192.4996 38.099219 1191.5996 38.199219 C 1190.9996 38.299219 1189.9 39.500391 1189 39.900391 C 1187.6 40.600391 1186.4004 41.100391 1185.4004 40.400391 C 1185.2004 40.300391 1183.7004 39.5 1183.4004 39 C 1182.9004 38.2 1181.8004 36.100391 1181.4004 36.900391 C 1181.0004 37.700391 1180.4 37.699219 1180 38.199219 C 1179.4 38.999219 1179.2 39.099219 1176.5 40.699219 C 1175.8 41.099219 1175.0996 41.800781 1174.0996 42.300781 C 1173.5996 42.600781 1170.8992 43.7 1170.1992 44 C 1169.6992 44.3 1167.1004 45.800391 1166.9004 45.900391 C 1161.5004 48.500391 1157.9992 54.400781 1153.6992 56.300781 C 1152.6992 56.700781 1151.6996 57.299609 1150.5996 57.099609 C 1149.9996 56.999609 1143.4992 57.599609 1143.1992 57.599609 C 1141.0992 57.899609 1138.8008 58.599609 1136.8008 58.599609 C 1135.6008 58.599609 1134.3004 58.299609 1133.4004 58.099609 C 1132.4004 57.899609 1131.6996 58.400781 1130.5996 57.300781 C 1130.0996 56.800781 1129.0996 54.9 1128.5996 54.5 C 1128.1996 54.2 1127.8996 53.500391 1127.5996 53.400391 C 1127.2996 53.400391 1127.2996 53.999219 1127.0996 54.199219 C 1126.8996 54.299219 1126.6 55.400781 1126.5 55.800781 C 1125.6 58.700781 1124.4996 59.499609 1123.5996 58.599609 C 1123.0996 58.199609 1122.6 58.3 1122 58 C 1121.8 57.9 1121.5 58.600781 1121 58.800781 C 1120.6 59.000781 1120.0008 59.999219 1119.8008 60.199219 C 1118.5008 61.099219 1117.8004 62.800781 1115.9004 64.300781 C 1114.9004 65.000781 1114.0004 66.400781 1112.9004 66.800781 C 1111.6004 67.300781 1108.5996 67.699219 1108.5996 67.699219 C 1107.8996 68.299219 1099.0992 70.2 1098.6992 70 C 1096.8992 69 1095.1996 67.699219 1094.0996 66.699219 L 1093.0996 65.699219 C 1092.4996 64.999219 1092.3 64.299609 1092 64.599609 C 1091.8 64.799609 1091.7 65.200391 1091.5 65.400391 C 1090.4 67.000391 1085.6004 68.900781 1083.4004 70.300781 C 1081.2004 71.700781 1077.2992 75.599609 1073.1992 77.099609 C 1072.8992 76.899609 1070.0008 78.000781 1068.3008 76.300781 C 1067.2008 75.200781 1064.6 75.099609 1064 74.599609 C 1063.1 73.899609 1060.2004 69.899219 1059.4004 69.199219 C 1058.7004 68.499219 1057.8 66.799609 1055 63.599609 C 1052.3 60.399609 1051.6 61.500391 1049.5 58.900391 C 1048.3 57.500391 1047.4996 59.600391 1046.5996 60.900391 C 1045.5996 62.300391 1045.1996 62.099219 1044.5996 63.199219 C 1043.9996 64.299219 1039.9008 67.899219 1039.3008 69.199219 C 1038.7008 70.499219 1037.4 70.499609 1037 71.099609 C 1036.4 71.999609 1033.8992 72.699219 1031.6992 73.699219 C 1029.6992 74.599219 1029.4 77.099219 1028 77.199219 C 1026.6 77.299219 1021.7008 80.8 1021.3008 81 C 1011.1008 85.8 1007.3996 86.7 1005.5996 88 C 1003.7996 89.2 999.00078 89.9 998.30078 91 C 997.50078 92.2 994.29922 93.999219 993.69922 94.199219 C 992.79922 94.499219 987.90078 98.700781 987.30078 98.800781 C 985.50078 99.100781 986.2 99.799609 984 99.599609 C 981.8 99.399609 970.79922 97.6 968.19922 95 C 966.59922 93.4 964.2 91.000781 963.5 90.800781 C 963 90.600781 961.89961 91.700391 960.59961 92.400391 C 957.19961 94.200391 957.09961 94.8 955.09961 94 C 953.19961 93.2 951.80039 92.500391 949.40039 90.400391 C 946.90039 88.300391 948.20078 89.199609 945.30078 87.599609 C 942.30078 85.999609 939.6 83.699609 939 83.099609 C 936.3 80.199609 937.79922 82.499609 934.19922 80.099609 C 931.99922 78.599609 931.00078 80.099219 928.30078 76.699219 C 927.90078 76.199219 924.29961 74.500781 924.09961 74.800781 C 923.49961 75.700781 921.3 70.699609 919 69.099609 C 918.3 68.699609 916.6 72.000391 916 71.900391 C 914.5 71.500391 910.59961 83.400391 908.59961 82.900391 C 906.99961 82.600391 905.40039 80.000391 904.90039 80.900391 C 902.40039 85.300391 895.79961 91.000781 894.59961 91.800781 C 893.39961 92.600781 889.29922 93.200781 887.69922 92.300781 C 885.99922 91.300781 884.59961 90.499219 883.59961 89.699219 C 882.99961 89.199219 882.69922 88.5 882.19922 88.5 C 881.89922 88.5 881.30078 89.300391 879.80078 90.400391 C 878.50078 91.300391 876.3 92.399219 874 93.699219 C 871.1 95.399219 872.59922 94.5 866.19922 97 C 859.79922 99.4 861.90078 99.200391 859.80078 99.400391 C 858.30078 99.500391 855.39922 101.3 852.19922 102 C 851.59922 102.1 846.10039 103.99961 840.90039 104.09961 C 835.70039 104.19961 832.60078 100.10039 830.30078 98.900391 C 826.20078 96.900391 826.10039 95.9 825.40039 95.5 C 825.10039 95.3 824.99922 95.9 824.19922 96.5 C 823.49922 97 822.29922 97.499219 821.69922 98.199219 C 820.99922 98.899219 819.70039 96.800781 818.40039 94.800781 C 817.90039 94.100781 817.80078 93.099219 817.30078 92.699219 C 817.00078 92.399219 816.9 93.2 816 94.5 C 815.7 95 814.99961 95.4 814.09961 96.5 C 812.59961 98.3 809.4 100.90039 808 101.90039 C 807.6 102.20039 807.09961 102.6 806.59961 103 C 806.19961 103.3 800.90039 108.60039 798.90039 108.90039 C 797.10039 109.20039 796.8 109.80078 796 109.80078 L 2497.5 109.80078 L 2497.5 82.5 C 2497.5 82.5 2493.3008 84.700781 2490.3008 86.800781 C 2485.5008 90.100781 2480.4 89.7 2476 92 C 2471.7 94.2 2461.3004 93.900781 2460.9004 93.800781 C 2459.5004 93.400781 2456.8992 93.3 2455.1992 92 C 2452.9992 90.2 2449.4996 90.400781 2448.5996 89.800781 C 2448.0996 89.500781 2445.9996 89.600781 2445.5996 89.300781 C 2444.6996 88.700781 2444.9 88.200781 2443.5 87.300781 C 2441.5 86.000781 2442.0004 86.799609 2439.4004 88.599609 C 2436.8004 90.399609 2435.1008 92.699219 2433.3008 92.699219 C 2431.5008 92.699219 2430.4004 92.400781 2427.9004 90.300781 C 2425.5004 88.200781 2426.0008 89.399609 2421.3008 89.599609 C 2416.6008 89.699609 2417.0004 89.099609 2414.9004 87.599609 C 2412.9004 86.199609 2409.1 84.999219 2407 81.699219 C 2406.2 80.399219 2405.3 79.000391 2405 79.400391 C 2404.1 80.400391 2403.0008 81.899609 2400.3008 84.099609 C 2397.5008 86.399609 2398.3 86.8 2395.5 88.5 C 2391 91.4 2393.2 92.1 2388.5 93.5 C 2386.7 94 2383.7008 98.199219 2380.3008 98.699219 C 2378.1008 98.999219 2377.0004 96.099219 2375.9004 97.699219 C 2375.4004 98.499219 2373.5992 99.299609 2369.1992 102.09961 C 2364.7992 104.89961 2365.1996 103.59961 2363.0996 103.09961 C 2360.8996 102.69961 2351.2008 99.700391 2349.3008 98.900391 C 2347.4008 98.100391 2345.4008 94.6 2344.8008 95 C 2344.1008 95.4 2343.4 96.599219 2339 98.699219 C 2336.5 99.899219 2333.2992 102.29961 2329.6992 103.09961 C 2326.0992 103.89961 2318.2008 103.10078 2316.8008 102.80078 C 2313.4008 102.10078 2310.2992 100.29922 2308.6992 100.19922 C 2306.4992 100.09922 2308.7004 100.20078 2301.9004 97.800781 C 2295.2004 95.300781 2296.6996 96.1 2293.5996 94.5 C 2290.3996 92.9 2288.6996 91.600781 2287.0996 89.800781 C 2285.5996 88.000781 2284.4 90.2 2279 93 C 2273.7 95.7 2273.6996 96.100391 2272.0996 95.900391 C 2270.5996 95.700391 2268.4 93.000391 2266.5 91.900391 C 2264.6 90.800391 2263.6 89.500781 2258.5 87.300781 C 2255.2 85.900781 2253.4992 83.600781 2252.6992 82.800781 C 2250.2992 80.500781 2243.4008 76.599609 2225.3008 70.099609 C 2224.9008 69.899609 2224.4 69.800391 2224 69.400391 C 2222.9 68.600391 2218.7 67.099609 2218.5 67.099609 C 2214 66.499609 2210.6 61.199609 2209.5 60.099609 C 2209.1 59.699609 2208.6992 58.400391 2207.6992 57.900391 C 2207.2992 57.700391 2205 55.800391 2204.5 55.400391 C 2203.5 54.800391 2201.5992 53.399219 2200.6992 52.699219 C 2199.9992 51.899219 2199 50.299609 2196 47.099609 C 2193.1 43.899609 2192.3996 45.000391 2190.0996 42.400391 C 2189.6996 42.100391 2189.6008 41.599219 2189.3008 41.699219 C 2188.8008 41.799219 2187.7004 43.400391 2186.9004 44.400391 C 2185.8004 45.800391 2185.2992 45.599219 2184.6992 46.699219 C 2184.0992 47.799219 2179.6 51.399219 2179 52.699219 C 2178.2 53.999219 2177.2008 55.999609 2176.8008 56.599609 C 2176.2008 57.499609 2172.0996 60.999219 2171.0996 61.699219 C 2170.4996 62.099219 2168.6 63.199609 2166 64.599609 C 2165.6 64.799609 2164.9008 64.399609 2163.3008 65.599609 C 2162.6008 66.199609 2161.8992 67.200391 2161.6992 67.400391 C 2160.7992 68.000391 2158.5008 71.200391 2157.3008 72.900391 C 2156.2008 74.600391 2152.6992 77.099609 2149.6992 80.099609 C 2147.9992 81.799609 2146 83.199219 2144.5 84.199219 C 2143.5 84.899219 2142.6008 85.299609 2142.3008 85.599609 C 2142.3008 85.599609 2139.8992 86.9 2138.6992 88.5 C 2137.7992 89.8 2134.0996 91.900781 2132.5996 93.300781 C 2130.9996 94.700781 2124.9004 98.2 2122.9004 98.5 C 2120.9004 98.8 2119.7008 98.800781 2119.3008 99.300781 C 2118.6008 100.10078 2116.0996 101.19961 2113.5996 101.09961 C 2112.8996 101.09961 2112.2008 100.39961 2111.8008 99.599609 C 2111.7008 99.399609 2103.6004 95.799219 2102.4004 94.699219 C 2100.6004 93.099219 2097.5008 89.7 2097.3008 90.5 C 2097.0008 91.2 2095.5992 91.399609 2094.1992 92.099609 C 2090.5992 93.899609 2090.3008 94.499219 2088.3008 93.699219 C 2086.3008 92.899219 2084.7992 92.199609 2082.1992 90.099609 C 2079.4992 87.999609 2080.9008 88.900781 2077.8008 87.300781 C 2074.6008 85.700781 2071.6 83.400781 2071 82.800781 C 2068.1 79.900781 2069.7008 82.200781 2065.8008 79.800781 C 2063.4008 78.300781 2062.6004 77.199609 2059.4004 75.099609 C 2058.0004 74.199609 2057.0996 71.199219 2056.0996 71.699219 C 2055.7996 71.899219 2054.9008 73.299219 2054.3008 74.199219 C 2053.7008 75.299219 2052.9 75.3 2051.5 76.5 C 2050.3 77.5 2050 78.300391 2049 77.900391 C 2048.1 77.500391 2042.1992 81.900391 2042.1992 81.900391 C 2042.1992 81.900391 2039.2004 85.200391 2036.4004 86.400391 C 2031.1004 88.600391 2030.2008 89.9 2028.3008 91 C 2026.3008 92.2 2028.1004 91.9 2023.4004 93.5 C 2022.0004 94 2020.0008 93.599609 2018.3008 93.099609 C 2017.6008 93.999609 2016.4996 95.299609 2015.0996 97.099609 C 2012.5996 100.39961 2010.6992 101.69922 2010.6992 101.69922 C 2008.9992 101.09922 2008.5 100.29961 2006.5 99.099609 C 2006 98.799609 1999 102.80039 1997.5 102.40039 C 1994.1 101.60039 1991.1008 99.2 1988.8008 98 C 1984.7008 95.9 1984.1004 94.700781 1983.4004 94.300781 C 1982.9004 93.900781 1980.9992 97.399219 1979.1992 98.199219 C 1977.3992 98.999219 1976.0996 97 1975.5996 97.5 C 1974.3996 98.8 1968.3008 102 1966.3008 102.5 C 1964.4008 103 1961.7996 101.5 1960.5996 101.5 C 1958.9996 101.5 1951.1992 98.299609 1950.1992 98.099609 C 1947.0992 97.699609 1944.3 93.500391 1942.5 92.900391 C 1938 91.500391 1940.2004 90.800391 1935.9004 87.900391 C 1933.4004 86.100391 1934.0004 85.8 1931.4004 83.5 C 1928.9004 81.3 1927.8 79.800781 1927 78.800781 C 1926.6 78.400781 1925.7996 79.899609 1925.0996 81.099609 C 1923.1996 84.299609 1919.6992 85.5 1917.6992 87 C 1915.7992 88.5 1915.7992 87.4 1911.6992 89 C 1909.9992 89.6 1907.7996 87.8 1907.5996 87.5 C 1907.1996 86.9 1906.4 88.799609 1905.5 89.599609 C 1903.2 91.799609 1897.0992 89.8 1894.6992 88 C 1893.1992 86.9 1892.3004 85.100391 1891.9004 85.400391 C 1891.5004 85.700391 1891.6004 86.099609 1890.9004 86.599609 C 1889.6004 87.499609 1889.9004 87.899609 1888.9004 88.599609 C 1888.6004 88.799609 1886.5996 88.699609 1886.0996 89.099609 C 1885.3996 89.699609 1882.0004 89.500781 1879.9004 91.300781 C 1878.3004 92.700781 1876.1004 91.299219 1874.9004 91.699219 C 1874.7004 91.699219 1872.5992 91.199609 1870.6992 90.599609 C 1869.8992 90.299609 1869.3996 88.800781 1868.5996 89.300781 C 1866.1996 90.900781 1862.7 91.700781 1860.5 91.300781 C 1853.9 90.000781 1849.3 87.799609 1847 86.099609 C 1844.2 83.999609 1841.6008 82.499609 1840.3008 81.599609 C 1838.7008 80.499609 1837.7992 77.400391 1837.1992 77.900391 C 1835.5992 79.200391 1834.5992 80.699219 1830.6992 82.699219 C 1826.7992 84.699219 1826.2008 85.800391 1822.8008 86.900391 C 1817.5008 88.600391 1813.4004 89.100781 1812.9004 89.300781 C 1810.7004 90.300781 1807.7008 88.5 1806.8008 88.5 C 1806.0008 88.6 1802.3004 85.099219 1800.9004 84.699219 C 1800.7004 84.699219 1800.3 85.199609 1800 85.599609 C 1799.7 85.999609 1797.2992 87.6 1795.6992 88 C 1794.3992 88.4 1791.3996 85.399219 1791.0996 85.199219 C 1788.2996 83.099219 1786.6004 80.599219 1786.4004 80.199219 C 1785.9004 79.099219 1784.9 81.399219 1784.5 81.699219 C 1783.8 82.299219 1782.9008 82.299609 1781.3008 83.599609 C 1780.1008 84.499609 1778.6 83.299609 1777.5 83.599609 C 1776.3 83.899609 1774.3004 82.400781 1772.4004 81.800781 C 1769.2004 80.700781 1766.0992 78.599219 1765.1992 77.699219 C 1762.6992 75.299219 1758.8 70.300781 1756 68.800781 C 1754.2 67.500781 1746.5004 64.900391 1740.9004 61.400391 C 1735.2004 57.800391 1730.1008 54.400781 1728.8008 53.300781 C 1727.5008 52.200781 1723.9008 49.299609 1722.8008 48.599609 C 1721.7008 47.999609 1719.4004 46.600391 1718.4004 45.900391 C 1717.4004 45.100391 1718.0004 46.2 1714.4004 43 C 1712.8004 41.6 1712.0008 41.799609 1709.3008 39.599609 C 1706.7008 37.399609 1708.4 37.8 1706 35.5 C 1705.7 35.2 1705.2004 34.599609 1704.9004 34.599609 C 1704.3004 34.599609 1702.9 36.599609 1702 37.599609 C 1700.7 38.999609 1701.2004 38.700781 1700.4004 39.800781 C 1700.1004 40.100781 1698.7004 42.499219 1697.9004 43.199219 C 1697.2004 43.799219 1696.1008 46.100391 1695.3008 46.400391 C 1693.9008 47.000391 1690.5 49.099219 1690 49.699219 C 1689.2 50.599219 1684.3992 54.100781 1683.1992 54.800781 C 1682.4992 55.200781 1679.3996 56.8 1676.0996 57.5 C 1675.6996 57.6 1674.4992 58.899609 1674.1992 59.099609 C 1672.6992 59.799609 1672.4 60.3 1672 60.5 C 1670.9 61.1 1670.0992 61.899609 1668.6992 63.599609 C 1667.8992 64.599609 1664.7004 64.5 1663.9004 64 C 1663.7004 63.9 1663.6 63.800781 1663.5 63.800781 C 1662.9 63.600781 1662.1004 63.999219 1661.4004 63.699219 C 1660.5004 63.299219 1657.7996 65.100391 1656.5996 67.400391 C 1656.2996 67.900391 1654.9992 68.599609 1654.6992 69.099609 C 1652.5992 73.199609 1651.2 77.700781 1649 78.800781 C 1649 78.800781 1645.3004 80.600391 1644.4004 82.400391 C 1643.9004 83.400391 1638.3996 85.400391 1637.0996 86.400391 C 1636.5996 86.800391 1635.6 87.4 1634.5 88 C 1633.8 88.4 1627.1004 91.399609 1625.9004 91.599609 C 1623.6004 91.899609 1622.3992 92.200391 1621.6992 92.400391 C 1620.9992 92.600391 1618.4996 94.5 1617.0996 95 C 1616.7996 95.1 1616.3992 94.899219 1615.6992 94.699219 C 1614.8992 94.399219 1613.8004 93.900781 1612.4004 93.300781 C 1611.6004 92.900781 1609.2992 91.999609 1608.1992 91.599609 C 1605.6992 90.599609 1602.7996 88.800781 1601.5996 87.800781 C 1599.1996 86.000781 1597.3996 82.5 1596.0996 82 L 1595.6992 82.599609 C 1595.0992 82.399609 1594.7996 84.3 1593.0996 85 C 1591.9996 85.5 1590.0008 86.100391 1589.3008 86.400391 C 1587.3008 87.200391 1586.7004 87.400781 1584.9004 86.800781 C 1582.4004 86.000781 1580.6996 85.299219 1577.5996 83.199219 C 1574.4996 81.099219 1576.2004 82.000391 1572.4004 80.400391 C 1568.7004 78.800391 1565.2004 76.500391 1564.4004 75.900391 C 1560.9004 73.000391 1562.7992 75.300391 1558.1992 72.900391 C 1555.2992 71.400391 1553.1992 70.4 1549.6992 67 C 1546.6992 64 1547.7004 66.400781 1544.9004 68.300781 C 1543.7004 69.100781 1538.6992 73.700781 1536.1992 74.800781 C 1534.3992 75.600781 1532.7 76.700391 1530.5 77.400391 C 1529.7 77.600391 1526.6996 78.1 1526.0996 78 C 1522.4996 77.4 1522.1992 77.000781 1521.1992 76.300781 C 1520.1992 75.600781 1520.2004 75.199609 1519.9004 75.599609 C 1519.3004 76.399609 1518.5996 77.2 1517.0996 78 C 1516.1996 78.4 1513.5992 80.800391 1512.6992 81.400391 C 1509.4992 83.500391 1508.4004 84.099609 1507.4004 84.599609 C 1505.1004 85.699609 1505 87.899609 1498.5 85.099609 C 1496.5 84.199609 1495.3008 83.100391 1494.3008 82.400391 C 1494.0008 82.100391 1493.4004 82.300781 1492.9004 81.800781 C 1492.3004 81.300781 1491.7004 80.099609 1491.4004 80.099609 C 1490.9004 80.099609 1489.8996 82.100781 1489.0996 82.800781 C 1488.0996 83.600781 1487.3992 84.500781 1485.6992 84.800781 C 1483.9992 85.200781 1481.9 86.1 1481 86.5 C 1477.3 88.2 1479.2 87.400781 1471 89.800781 C 1469.4 90.200781 1465.0008 92.099219 1462.8008 92.199219 C 1460.9008 92.299219 1457.1996 94.100781 1453.0996 94.800781 C 1452.5996 94.900781 1451.0992 95.099219 1449.1992 95.199219 C 1446.9992 95.299219 1438.7 95.299609 1437.5 95.099609 C 1433.1 94.299609 1421 91.600781 1416.5 91.800781 C 1412 92.000781 1405.6996 89.900781 1402.5996 89.800781 C 1402.2996 89.800781 1400.3996 92.400391 1400.0996 92.400391 C 1399.9996 92.400391 1399.7992 92.5 1399.6992 92.5 C 1398.6992 92.2 1397.4992 91.7 1396.1992 91 C 1392.9992 89.2 1391.9992 87.6 1391.1992 87.5 C 1390.3992 87.4 1388.9996 89.500781 1386.0996 91.300781 C 1383.1996 93.100781 1381.1008 94.199609 1378.3008 94.099609 C 1376.2008 93.999609 1365.4996 92.099219 1364.5996 91.699219 C 1363.4996 91.099219 1357.9004 88.600391 1356.9004 87.900391 C 1353.7004 85.700391 1352.3008 84.199219 1351.3008 83.199219 C 1350.9008 82.799219 1349.8004 84.3 1348.9004 85.5 L 1348.8008 85.599609 C 1347.8008 85.099609 1346.8992 84.699219 1346.1992 84.199219 C 1344.8992 83.399219 1338.7 79.900781 1334 77.800781 C 1333.6 77.600781 1333.2996 77.500391 1333.0996 77.400391 C 1331.2996 76.300391 1326.3996 71.8 1325.5996 73 C 1323.9996 75.3 1323.2 77.099609 1316.5 75.599609 C 1311.5 74.499609 1300.9004 64.799609 1295.9004 62.099609 C 1287.5004 57.699609 1286.2992 53.399219 1285.6992 53.199219 C 1285.5992 53.199219 1283.4996 50.900781 1282.5996 51.300781 C 1275.5996 54.700781 1272.9992 53.000781 1272.1992 52.800781 C 1268.9992 52.100781 1267.7 49.400391 1264.5 47.900391 C 1259.9 45.700391 1253.4008 36.299609 1252.3008 37.099609 C 1250.7008 38.199609 1249.3004 40.400781 1247.4004 43.300781 C 1245.4004 41.500781 1242.7004 39.000781 1240.9004 37.300781 C 1240.3004 36.700781 1239.6004 34.399609 1238.9004 34.099609 C 1237.4004 33.499609 1232.8996 28.100781 1230.5996 25.300781 C 1230.2996 24.900781 1229.8 24.9 1229.5 24.5 C 1228.1 22.9 1226.6992 21.299219 1225.6992 20.199219 C 1224.6992 18.999219 1223.8996 16.699219 1223.0996 16.699219 z M 796 109.80078 C 792.8 109.70078 790.10078 105.19961 788.30078 104.59961 C 783.80078 103.19961 785.99922 102.49961 781.69922 99.599609 C 779.19922 97.799609 779.79922 97.499219 777.19922 95.199219 C 774.69922 92.999219 773.60078 91.5 772.80078 90.5 C 772.40078 90.1 771.60039 91.600781 770.90039 92.800781 C 769.00039 96.000781 765.5 97.199219 763.5 98.699219 C 761.6 100.19922 758.30078 103.19922 753.30078 102.19922 C 747.60078 101.09922 741.49961 94.499609 738.59961 93.599609 C 732.59961 91.799609 722.00078 81.399609 719.80078 78.599609 C 717.30078 75.399609 702.5 67.999609 701 65.599609 C 696.6 58.499609 691.19961 50.199609 686.59961 44.599609 C 678.09961 34.399609 675.79961 26.799609 672.59961 24.099609 C 671.39961 23.199609 664.90039 34 660.40039 36.5 C 657.30039 38.3 655.89922 41.299609 652.69922 42.099609 C 651.89922 42.299609 649.40078 41.300391 648.80078 41.400391 C 646.30078 42.100391 646.40078 43.500391 642.30078 40.400391 C 641.50078 39.800391 639.29922 42.599609 639.19922 42.599609 C 638.49922 42.799609 637.4 47.700391 629 52.900391 C 623.8 56.100391 616.20039 66.800781 611.40039 68.300781 C 604.70039 70.400781 600.79922 68.1 599.19922 65.5 C 598.29922 64.1 593.49922 69.3 591.69922 70.5 C 591.49922 70.6 591.20078 70.8 590.80078 71 C 586.10078 73.5 579.79961 77.400391 578.59961 78.400391 C 574.59961 81.500391 563.2 85.2 560 87 C 559.1 87.5 548.40078 89.599219 546.30078 89.699219 C 543.60078 89.799219 541.4 88.500391 538.5 86.400391 C 535.5 84.300391 534.20039 81.9 533.40039 82 C 532.70039 82.1 531.70039 83.9 528.40039 86 C 525.10039 88.1 522.89922 88.199219 521.19922 88.699219 C 518.29922 89.599219 516.40078 88.600391 514.30078 89.900391 C 510.90078 92.000391 507.69961 91.300781 506.59961 91.800781 C 505.49961 92.300781 502.30078 91.499609 498.80078 91.099609 C 496.40078 90.799609 496.80078 91.599609 491.30078 89.599609 C 485.80078 87.599609 487.60078 88.1 484.30078 86 C 481.10078 83.9 480.10078 82.1 479.30078 82 C 478.50078 81.9 477.09922 84.300391 474.19922 86.400391 C 471.19922 88.600391 471.39961 88.100391 468.59961 87.900391 C 466.59961 87.700391 457.7 88.000391 454.5 86.400391 C 451.3 84.800391 450.79922 84.1 446.19922 82 C 441.69922 79.9 443.79922 81.400391 439.69922 79.900391 C 435.59922 78.500391 436.3 78.6 433.5 77 C 430.8 75.4 430.8 76.200391 427 73.900391 C 423.3 71.600391 423.70078 72.1 421.30078 70.5 C 418.90078 68.9 418.00039 66.599609 416.90039 65.099609 C 415.80039 63.599609 416.10039 63.700781 412.90039 68.800781 C 409.70039 74.000781 410.29961 75 407.09961 78 C 406.09961 78.9 401.60039 84.599219 398.40039 85.699219 C 396.50039 86.299219 395.60039 85.499219 394.40039 85.199219 C 393.30039 84.999219 391.89922 85.200781 390.69922 84.300781 C 389.09922 83.000781 387.60039 82.000391 386.90039 81.400391 C 386.50039 81.100391 385.5 78.900391 385 79.900391 C 384.8 80.300391 383.10078 82.800391 380.30078 84.900391 C 380.00078 85.100391 376.99922 87.999219 375.69922 87.699219 C 374.19922 87.299219 371.70039 85.600781 371.40039 85.300781 C 371.00039 84.900781 370.7 84.300391 370.5 84.400391 C 369.1 84.800391 365.49961 88.199219 364.59961 88.199219 C 363.69961 88.199219 360.6 90 358.5 89 C 358 88.8 353.89961 88.399609 348.59961 86.599609 C 345.19961 85.399609 344.59922 84.400391 340.69922 82.400391 C 336.79922 80.500391 335.79922 78.899609 334.19922 77.599609 C 333.59922 77.099609 332.69961 80.200781 331.09961 81.300781 C 329.79961 82.200781 327.20039 83.700781 324.40039 85.800781 C 319.80039 89.100781 315.00039 88.7 310.90039 91 C 306.80039 93.2 297.09922 92.900781 296.69922 92.800781 C 295.39922 92.400781 293.00039 92.3 291.40039 91 C 289.30039 89.2 285.99922 89.400781 285.19922 88.800781 C 284.69922 88.500781 282.80039 88.600781 282.40039 88.300781 C 281.50039 87.700781 281.70039 87.200781 280.40039 86.300781 C 278.60039 85.000781 278.99961 85.799609 276.59961 87.599609 C 274.19961 89.399609 272.50039 91.699219 270.90039 91.699219 C 269.20039 91.699219 268.10078 91.400781 265.80078 89.300781 C 263.50078 87.200781 263.99961 88.399609 259.59961 88.599609 C 255.19961 88.699609 255.59961 88.099609 253.59961 86.599609 C 251.69961 85.199609 248.19922 83.999219 246.19922 80.699219 C 245.39922 79.399219 244.60078 78.000391 244.30078 78.400391 C 243.50078 79.400391 242.40039 80.899609 239.90039 83.099609 C 237.30039 85.399609 238.00039 85.8 235.40039 87.5 C 231.10039 90.4 233.20078 91.1 228.80078 92.5 C 227.10078 93 224.29961 97.199219 221.09961 97.699219 C 219.09961 97.999219 218 95.099219 217 96.699219 C 216.5 97.499219 214.79922 98.299609 210.69922 101.09961 C 206.59922 103.89961 207 102.59961 205 102.09961 C 202.9 101.69961 193.8 98.700391 192 97.900391 C 190.2 97.100391 188.40078 93.6 187.80078 94 C 187.20078 94.4 186.50039 95.599219 182.40039 97.699219 C 180.10039 98.899219 177.09922 101.29961 173.69922 102.09961 C 170.19922 102.89961 162.8 102.10078 161.5 101.80078 C 158.3 101.10078 155.40039 99.299219 153.90039 99.199219 C 151.80039 99.099219 153.9 99.200781 147.5 96.800781 C 141.2 94.300781 142.59922 95.1 139.69922 93.5 C 136.69922 91.9 135.09961 90.600781 133.59961 88.800781 C 132.19961 87.000781 131.1 89.2 126 92 C 121 94.7 121 95.100391 119.5 94.900391 C 118.1 94.700391 116.10078 92.000391 114.30078 90.900391 C 112.50078 89.800391 111.60078 88.500781 106.80078 86.300781 C 104.20078 85.200781 103.40039 83.300781 101.40039 81.800781 C 99.400391 80.300781 96.699219 78.800781 96.699219 78.800781 C 94.199219 77.800781 90.799219 76.8 89.699219 75 C 89.299219 74.3 88.699219 72.500391 88.199219 72.400391 C 87.399219 72.200391 86.700391 74.1 85.400391 75 C 82.500391 77.2 81.7 78.199219 79.5 79.699219 C 75.8 82.099219 67.6 73 66 72.5 C 59.3 70.2 50.4 53.4 50 53.5 C 49.2 53.7 46.900781 56.099219 45.300781 57.699219 C 42.600781 60.299219 37.59888 62.049247 33.099609 64.900391 C 28.600338 67.751535 23.907455 71.914325 18.378906 74.894531 C 12.850357 77.874737 0 82.5 0 82.5 L 0 109.80078 L 796 109.80078 z " />
</svg>
